<svg aria-roledescription="er" role="graphics-document document" viewBox="0 0 690.2897338867188 583" style="max-width: 690.29px; background-color: white;" xmlns:xlink="http://www.w3.org/1999/xlink" xmlns="http://www.w3.org/2000/svg" width="100%" id="my-svg"><style>#my-svg{font-family:"trebuchet ms",verdana,arial,sans-serif;font-size:16px;fill:#ccc;}#my-svg .error-icon{fill:#a44141;}#my-svg .error-text{fill:#ddd;stroke:#ddd;}#my-svg .edge-thickness-normal{stroke-width:2px;}#my-svg .edge-thickness-thick{stroke-width:3.5px;}#my-svg .edge-pattern-solid{stroke-dasharray:0;}#my-svg .edge-pattern-dashed{stroke-dasharray:3;}#my-svg .edge-pattern-dotted{stroke-dasharray:2;}#my-svg .marker{fill:lightgrey;stroke:lightgrey;}#my-svg .marker.cross{stroke:lightgrey;}#my-svg svg{font-family:"trebuchet ms",verdana,arial,sans-serif;font-size:16px;}#my-svg .entityBox{fill:#1f2020;stroke:#81B1DB;}#my-svg .attributeBoxOdd{fill:hsl(0, 0%, 32%);stroke:#81B1DB;}#my-svg .attributeBoxEven{fill:hsl(0, 0%, 22%);stroke:#81B1DB;}#my-svg .relationshipLabelBox{fill:hsl(20, 1.5873015873%, 12.3529411765%);opacity:0.7;background-color:hsl(20, 1.5873015873%, 12.3529411765%);}#my-svg .relationshipLabelBox rect{opacity:0.5;}#my-svg .relationshipLine{stroke:lightgrey;}#my-svg .entityTitleText{text-anchor:middle;font-size:18px;fill:#ccc;}#my-svg #MD_PARENT_START{fill:#f5f5f5!important;stroke:lightgrey!important;stroke-width:1;}#my-svg #MD_PARENT_END{fill:#f5f5f5!important;stroke:lightgrey!important;stroke-width:1;}#my-svg :root{--mermaid-font-family:"trebuchet ms",verdana,arial,sans-serif;}</style><g/><defs><marker orient="auto" markerHeight="240" markerWidth="190" refY="7" refX="0" id="MD_PARENT_START"><path d="M 18,7 L9,13 L1,7 L9,1 Z"/></marker></defs><defs><marker orient="auto" markerHeight="28" markerWidth="20" refY="7" refX="19" id="MD_PARENT_END"><path d="M 18,7 L9,13 L1,7 L9,1 Z"/></marker></defs><defs><marker orient="auto" markerHeight="18" markerWidth="18" refY="9" refX="0" id="ONLY_ONE_START"><path d="M9,0 L9,18 M15,0 L15,18" fill="none" stroke="gray"/></marker></defs><defs><marker orient="auto" markerHeight="18" markerWidth="18" refY="9" refX="18" id="ONLY_ONE_END"><path d="M3,0 L3,18 M9,0 L9,18" fill="none" stroke="gray"/></marker></defs><defs><marker orient="auto" markerHeight="18" markerWidth="30" refY="9" refX="0" id="ZERO_OR_ONE_START"><circle r="6" cy="9" cx="21" fill="white" stroke="gray"/><path d="M9,0 L9,18" fill="none" stroke="gray"/></marker></defs><defs><marker orient="auto" markerHeight="18" markerWidth="30" refY="9" refX="30" id="ZERO_OR_ONE_END"><circle r="6" cy="9" cx="9" fill="white" stroke="gray"/><path d="M21,0 L21,18" fill="none" stroke="gray"/></marker></defs><defs><marker orient="auto" markerHeight="36" markerWidth="45" refY="18" refX="18" id="ONE_OR_MORE_START"><path d="M0,18 Q 18,0 36,18 Q 18,36 0,18 M42,9 L42,27" fill="none" stroke="gray"/></marker></defs><defs><marker orient="auto" markerHeight="36" markerWidth="45" refY="18" refX="27" id="ONE_OR_MORE_END"><path d="M3,9 L3,27 M9,18 Q27,0 45,18 Q27,36 9,18" fill="none" stroke="gray"/></marker></defs><defs><marker orient="auto" markerHeight="36" markerWidth="57" refY="18" refX="18" id="ZERO_OR_MORE_START"><circle r="6" cy="18" cx="48" fill="white" stroke="gray"/><path d="M0,18 Q18,0 36,18 Q18,36 0,18" fill="none" stroke="gray"/></marker></defs><defs><marker orient="auto" markerHeight="36" markerWidth="57" refY="18" refX="39" id="ZERO_OR_MORE_END"><circle r="6" cy="18" cx="9" fill="white" stroke="gray"/><path d="M21,18 Q39,0 57,18 Q39,36 21,18" fill="none" stroke="gray"/></marker></defs><path style="stroke: gray; fill: none;" marker-start="url(#ZERO_OR_ONE_START)" marker-end="url(#ONLY_ONE_END)" d="M345.12297439575195,107.62284821019423L302.49310366312665,122.85237350849519C259.8632329305013,138.08189880679615,174.60349146525064,168.54094940339806,131.97362073262533,197.52047470169904C89.34375,226.5,89.34375,254,89.34375,267.75L89.34375,281.5" class="er relationshipLine"/><path style="stroke: gray; fill: none;" marker-start="url(#ZERO_OR_MORE_START)" marker-end="url(#ZERO_OR_MORE_END)" d="M345.12297439575195,134.1705940264393L331.0433712005615,144.97549502203273C316.9637680053711,155.7803960176262,288.80456161499023,177.3901980088131,282.0938288287478,200.02843233773987C275.3830960425053,222.66666666666666,290.1208368604013,246.33333333333334,297.4897072693493,258.1666666666667L304.8585776782973,270" class="er relationshipLine"/><path style="stroke: gray; fill: none;" marker-start="url(#ZERO_OR_MORE_START)" marker-end="url(#ZERO_OR_MORE_END)" d="M466.1793928354588,149L473.4574132139159,157.33333333333334C480.735433592373,165.66666666666666,495.29147434928706,182.33333333333334,508.2391129706104,199C521.1867515919338,215.66666666666666,532.5259880776663,232.33333333333334,538.1956063205325,240.66666666666666L543.8652245633988,249" class="er relationshipLine"/><path style="stroke: gray; fill: none;" marker-start="url(#ZERO_OR_ONE_START)" marker-end="url(#ONLY_ONE_END)" d="M331.94696044921875,357L331.94696044921875,368.8333333333333C331.94696044921875,380.6666666666667,331.94696044921875,404.3333333333333,331.94696044921875,426.25C331.94696044921875,448.1666666666667,331.94696044921875,468.3333333333333,331.94696044921875,478.4166666666667L331.94696044921875,488.5" class="er relationshipLine"/><path style="stroke: gray; fill: none;" marker-start="url(#ZERO_OR_ONE_START)" marker-end="url(#ONLY_ONE_END)" d="M361.54236767698063,270L369.5932255818507,258.1666666666667C377.6440834867208,246.33333333333334,393.745799296461,222.66666666666666,401.7966572013311,202.5C409.8475151062012,182.33333333333334,409.8475151062012,165.66666666666666,409.8475151062012,157.33333333333334L409.8475151062012,149" class="er relationshipLine"/><path style="stroke: gray; fill: none;" marker-start="url(#ZERO_OR_ONE_START)" marker-end="url(#ONLY_ONE_END)" d="M587.7480697631836,378L587.7480697631836,386.3333333333333C587.7480697631836,394.6666666666667,587.7480697631836,411.3333333333333,587.7480697631836,428C587.7480697631836,444.6666666666667,587.7480697631836,461.3333333333333,587.7480697631836,469.6666666666667L587.7480697631836,478" class="er relationshipLine"/><path style="stroke: gray; fill: none;" marker-start="url(#ZERO_OR_ONE_START)" marker-end="url(#ONLY_ONE_END)" d="M615.9140086278124,249L619.553018817041,240.66666666666666C623.1920290062695,232.33333333333334,630.4700493847266,215.66666666666666,606.9130572495329,193.6697322471789C583.3560651143392,171.67279782769114,528.9640604654948,144.34559565538228,501.7680581410726,130.68199456922784L474.5720558166504,117.01839348307342" class="er relationshipLine"/><g transform="translate(20,281.5 )" id="entity-UserRole-348851bc-4e3e-5e0e-a5b3-6fde704fd893"><rect height="64" width="138.6875" y="0" x="0" class="er entityBox"/><text style="dominant-baseline: middle; text-anchor: middle; font-size: 12px;" transform="translate(69.34375,11)" y="0" x="0" id="text-entity-UserRole-348851bc-4e3e-5e0e-a5b3-6fde704fd893" class="er entityLabel">UserRole</text><rect height="21" width="69.34375" y="22" x="0" class="er attributeBoxOdd"/><text style="dominant-baseline: middle; font-size: 10.2px;" transform="translate(5,32.5)" y="0" x="0" id="text-entity-UserRole-348851bc-4e3e-5e0e-a5b3-6fde704fd893-attr-1-type" class="er entityLabel">CONSUMER</text><rect height="21" width="69.34375" y="22" x="69.34375" class="er attributeBoxOdd"/><text style="dominant-baseline: middle; font-size: 10.2px;" transform="translate(74.34375,32.5)" y="0" x="0" id="text-entity-UserRole-348851bc-4e3e-5e0e-a5b3-6fde704fd893-attr-1-name" class="er entityLabel">CONSUMER</text><rect height="21" width="69.34375" y="43" x="0" class="er attributeBoxEven"/><text style="dominant-baseline: middle; font-size: 10.2px;" transform="translate(5,53.5)" y="0" x="0" id="text-entity-UserRole-348851bc-4e3e-5e0e-a5b3-6fde704fd893-attr-2-type" class="er entityLabel">MERCHANT</text><rect height="21" width="69.34375" y="43" x="69.34375" class="er attributeBoxEven"/><text style="dominant-baseline: middle; font-size: 10.2px;" transform="translate(74.34375,53.5)" y="0" x="0" id="text-entity-UserRole-348851bc-4e3e-5e0e-a5b3-6fde704fd893-attr-2-name" class="er entityLabel">MERCHANT</text></g><g transform="translate(276.7087097167969,488.5 )" id="entity-DocumentType-b7895c75-1f61-5cd1-b37a-f66b7f5fbbf2"><rect height="64" width="110.47650146484375" y="0" x="0" class="er entityBox"/><text style="dominant-baseline: middle; text-anchor: middle; font-size: 12px;" transform="translate(55.238250732421875,11)" y="0" x="0" id="text-entity-DocumentType-b7895c75-1f61-5cd1-b37a-f66b7f5fbbf2" class="er entityLabel">DocumentType</text><rect height="21" width="55.238250732421875" y="22" x="0" class="er attributeBoxOdd"/><text style="dominant-baseline: middle; font-size: 10.2px;" transform="translate(5,32.5)" y="0" x="0" id="text-entity-DocumentType-b7895c75-1f61-5cd1-b37a-f66b7f5fbbf2-attr-1-type" class="er entityLabel">CPF</text><rect height="21" width="55.238250732421875" y="22" x="55.238250732421875" class="er attributeBoxOdd"/><text style="dominant-baseline: middle; font-size: 10.2px;" transform="translate(60.238250732421875,32.5)" y="0" x="0" id="text-entity-DocumentType-b7895c75-1f61-5cd1-b37a-f66b7f5fbbf2-attr-1-name" class="er entityLabel">CPF</text><rect height="21" width="55.238250732421875" y="43" x="0" class="er attributeBoxEven"/><text style="dominant-baseline: middle; font-size: 10.2px;" transform="translate(5,53.5)" y="0" x="0" id="text-entity-DocumentType-b7895c75-1f61-5cd1-b37a-f66b7f5fbbf2-attr-2-type" class="er entityLabel">CNPJ</text><rect height="21" width="55.238250732421875" y="43" x="55.238250732421875" class="er attributeBoxEven"/><text style="dominant-baseline: middle; font-size: 10.2px;" transform="translate(60.238250732421875,53.5)" y="0" x="0" id="text-entity-DocumentType-b7895c75-1f61-5cd1-b37a-f66b7f5fbbf2-attr-2-name" class="er entityLabel">CNPJ</text></g><g transform="translate(514.9824447631836,478 )" id="entity-TransactionStatus-b7be538c-a8ec-5e0a-b9be-21310555a277"><rect height="85" width="145.53125" y="0" x="0" class="er entityBox"/><text style="dominant-baseline: middle; text-anchor: middle; font-size: 12px;" transform="translate(72.765625,11)" y="0" x="0" id="text-entity-TransactionStatus-b7be538c-a8ec-5e0a-b9be-21310555a277" class="er entityLabel">TransactionStatus</text><rect height="21" width="72.765625" y="22" x="0" class="er attributeBoxOdd"/><text style="dominant-baseline: middle; font-size: 10.2px;" transform="translate(5,32.5)" y="0" x="0" id="text-entity-TransactionStatus-b7be538c-a8ec-5e0a-b9be-21310555a277-attr-1-type" class="er entityLabel">PENDING</text><rect height="21" width="72.765625" y="22" x="72.765625" class="er attributeBoxOdd"/><text style="dominant-baseline: middle; font-size: 10.2px;" transform="translate(77.765625,32.5)" y="0" x="0" id="text-entity-TransactionStatus-b7be538c-a8ec-5e0a-b9be-21310555a277-attr-1-name" class="er entityLabel">PENDING</text><rect height="21" width="72.765625" y="43" x="0" class="er attributeBoxEven"/><text style="dominant-baseline: middle; font-size: 10.2px;" transform="translate(5,53.5)" y="0" x="0" id="text-entity-TransactionStatus-b7be538c-a8ec-5e0a-b9be-21310555a277-attr-2-type" class="er entityLabel">COMPLETED</text><rect height="21" width="72.765625" y="43" x="72.765625" class="er attributeBoxEven"/><text style="dominant-baseline: middle; font-size: 10.2px;" transform="translate(77.765625,53.5)" y="0" x="0" id="text-entity-TransactionStatus-b7be538c-a8ec-5e0a-b9be-21310555a277-attr-2-name" class="er entityLabel">COMPLETED</text><rect height="21" width="72.765625" y="64" x="0" class="er attributeBoxOdd"/><text style="dominant-baseline: middle; font-size: 10.2px;" transform="translate(5,74.5)" y="0" x="0" id="text-entity-TransactionStatus-b7be538c-a8ec-5e0a-b9be-21310555a277-attr-3-type" class="er entityLabel">CANCELED</text><rect height="21" width="72.765625" y="64" x="72.765625" class="er attributeBoxOdd"/><text style="dominant-baseline: middle; font-size: 10.2px;" transform="translate(77.765625,74.5)" y="0" x="0" id="text-entity-TransactionStatus-b7be538c-a8ec-5e0a-b9be-21310555a277-attr-3-name" class="er entityLabel">CANCELED</text></g><g transform="translate(345.12297439575195,20 )" id="entity-users-33ae1e26-be31-5c1d-bf65-e859e9d0308e"><rect height="129" width="129.44908142089844" y="0" x="0" class="er entityBox"/><text style="dominant-baseline: middle; text-anchor: middle; font-size: 12px;" transform="translate(64.72454071044922,11)" y="0" x="0" id="text-entity-users-33ae1e26-be31-5c1d-bf65-e859e9d0308e" class="er entityLabel">users</text><rect height="23" width="52.705047607421875" y="22" x="0" class="er attributeBoxOdd"/><text style="dominant-baseline: middle; font-size: 10.2px;" transform="translate(5,33.5)" y="0" x="0" id="text-entity-users-33ae1e26-be31-5c1d-bf65-e859e9d0308e-attr-1-type" class="er entityLabel">String</text><rect height="23" width="53.74403381347656" y="22" x="52.705047607421875" class="er attributeBoxOdd"/><text style="dominant-baseline: middle; font-size: 10.2px;" transform="translate(57.705047607421875,33.5)" y="0" x="0" id="text-entity-users-33ae1e26-be31-5c1d-bf65-e859e9d0308e-attr-1-name" class="er entityLabel">id</text><rect height="23" width="23" y="22" x="106.44908142089844" class="er attributeBoxOdd"/><text style="dominant-baseline: middle; font-size: 10.2px;" transform="translate(111.44908142089844,33.5)" y="0" x="0" id="text-entity-users-33ae1e26-be31-5c1d-bf65-e859e9d0308e-attr-1-comment" class="er entityLabel">🗝️</text><rect height="21" width="52.705047607421875" y="45" x="0" class="er attributeBoxEven"/><text style="dominant-baseline: middle; font-size: 10.2px;" transform="translate(5,55.5)" y="0" x="0" id="text-entity-users-33ae1e26-be31-5c1d-bf65-e859e9d0308e-attr-2-type" class="er entityLabel">String</text><rect height="21" width="53.74403381347656" y="45" x="52.705047607421875" class="er attributeBoxEven"/><text style="dominant-baseline: middle; font-size: 10.2px;" transform="translate(57.705047607421875,55.5)" y="0" x="0" id="text-entity-users-33ae1e26-be31-5c1d-bf65-e859e9d0308e-attr-2-name" class="er entityLabel">name</text><rect height="21" width="23" y="45" x="106.44908142089844" class="er attributeBoxEven"/><text style="dominant-baseline: middle; font-size: 10.2px;" transform="translate(111.44908142089844,55.5)" y="0" x="0" id="text-entity-users-33ae1e26-be31-5c1d-bf65-e859e9d0308e-attr-2-comment" class="er entityLabel"/><rect height="21" width="52.705047607421875" y="66" x="0" class="er attributeBoxOdd"/><text style="dominant-baseline: middle; font-size: 10.2px;" transform="translate(5,76.5)" y="0" x="0" id="text-entity-users-33ae1e26-be31-5c1d-bf65-e859e9d0308e-attr-3-type" class="er entityLabel">String</text><rect height="21" width="53.74403381347656" y="66" x="52.705047607421875" class="er attributeBoxOdd"/><text style="dominant-baseline: middle; font-size: 10.2px;" transform="translate(57.705047607421875,76.5)" y="0" x="0" id="text-entity-users-33ae1e26-be31-5c1d-bf65-e859e9d0308e-attr-3-name" class="er entityLabel">password</text><rect height="21" width="23" y="66" x="106.44908142089844" class="er attributeBoxOdd"/><text style="dominant-baseline: middle; font-size: 10.2px;" transform="translate(111.44908142089844,76.5)" y="0" x="0" id="text-entity-users-33ae1e26-be31-5c1d-bf65-e859e9d0308e-attr-3-comment" class="er entityLabel"/><rect height="21" width="52.705047607421875" y="87" x="0" class="er attributeBoxEven"/><text style="dominant-baseline: middle; font-size: 10.2px;" transform="translate(5,97.5)" y="0" x="0" id="text-entity-users-33ae1e26-be31-5c1d-bf65-e859e9d0308e-attr-4-type" class="er entityLabel">String</text><rect height="21" width="53.74403381347656" y="87" x="52.705047607421875" class="er attributeBoxEven"/><text style="dominant-baseline: middle; font-size: 10.2px;" transform="translate(57.705047607421875,97.5)" y="0" x="0" id="text-entity-users-33ae1e26-be31-5c1d-bf65-e859e9d0308e-attr-4-name" class="er entityLabel">email</text><rect height="21" width="23" y="87" x="106.44908142089844" class="er attributeBoxEven"/><text style="dominant-baseline: middle; font-size: 10.2px;" transform="translate(111.44908142089844,97.5)" y="0" x="0" id="text-entity-users-33ae1e26-be31-5c1d-bf65-e859e9d0308e-attr-4-comment" class="er entityLabel"/><rect height="21" width="52.705047607421875" y="108" x="0" class="er attributeBoxOdd"/><text style="dominant-baseline: middle; font-size: 10.2px;" transform="translate(5,118.5)" y="0" x="0" id="text-entity-users-33ae1e26-be31-5c1d-bf65-e859e9d0308e-attr-5-type" class="er entityLabel">UserRole</text><rect height="21" width="53.74403381347656" y="108" x="52.705047607421875" class="er attributeBoxOdd"/><text style="dominant-baseline: middle; font-size: 10.2px;" transform="translate(57.705047607421875,118.5)" y="0" x="0" id="text-entity-users-33ae1e26-be31-5c1d-bf65-e859e9d0308e-attr-5-name" class="er entityLabel">user_role</text><rect height="21" width="23" y="108" x="106.44908142089844" class="er attributeBoxOdd"/><text style="dominant-baseline: middle; font-size: 10.2px;" transform="translate(111.44908142089844,118.5)" y="0" x="0" id="text-entity-users-33ae1e26-be31-5c1d-bf65-e859e9d0308e-attr-5-comment" class="er entityLabel"/></g><g transform="translate(258.6875,270 )" id="entity-documents-075aa3b2-4831-5126-aa8d-2ac77a2ec4bb"><rect height="87" width="146.5189208984375" y="0" x="0" class="er entityBox"/><text style="dominant-baseline: middle; text-anchor: middle; font-size: 12px;" transform="translate(73.25946044921875,11)" y="0" x="0" id="text-entity-documents-075aa3b2-4831-5126-aa8d-2ac77a2ec4bb" class="er entityLabel">documents</text><rect height="23" width="78.37608337402344" y="22" x="0" class="er attributeBoxOdd"/><text style="dominant-baseline: middle; font-size: 10.2px;" transform="translate(5,33.5)" y="0" x="0" id="text-entity-documents-075aa3b2-4831-5126-aa8d-2ac77a2ec4bb-attr-1-type" class="er entityLabel">String</text><rect height="23" width="45.14283752441406" y="22" x="78.37608337402344" class="er attributeBoxOdd"/><text style="dominant-baseline: middle; font-size: 10.2px;" transform="translate(83.37608337402344,33.5)" y="0" x="0" id="text-entity-documents-075aa3b2-4831-5126-aa8d-2ac77a2ec4bb-attr-1-name" class="er entityLabel">id</text><rect height="23" width="23" y="22" x="123.5189208984375" class="er attributeBoxOdd"/><text style="dominant-baseline: middle; font-size: 10.2px;" transform="translate(128.5189208984375,33.5)" y="0" x="0" id="text-entity-documents-075aa3b2-4831-5126-aa8d-2ac77a2ec4bb-attr-1-comment" class="er entityLabel">🗝️</text><rect height="21" width="78.37608337402344" y="45" x="0" class="er attributeBoxEven"/><text style="dominant-baseline: middle; font-size: 10.2px;" transform="translate(5,55.5)" y="0" x="0" id="text-entity-documents-075aa3b2-4831-5126-aa8d-2ac77a2ec4bb-attr-2-type" class="er entityLabel">BigInt</text><rect height="21" width="45.14283752441406" y="45" x="78.37608337402344" class="er attributeBoxEven"/><text style="dominant-baseline: middle; font-size: 10.2px;" transform="translate(83.37608337402344,55.5)" y="0" x="0" id="text-entity-documents-075aa3b2-4831-5126-aa8d-2ac77a2ec4bb-attr-2-name" class="er entityLabel">number</text><rect height="21" width="23" y="45" x="123.5189208984375" class="er attributeBoxEven"/><text style="dominant-baseline: middle; font-size: 10.2px;" transform="translate(128.5189208984375,55.5)" y="0" x="0" id="text-entity-documents-075aa3b2-4831-5126-aa8d-2ac77a2ec4bb-attr-2-comment" class="er entityLabel"/><rect height="21" width="78.37608337402344" y="66" x="0" class="er attributeBoxOdd"/><text style="dominant-baseline: middle; font-size: 10.2px;" transform="translate(5,76.5)" y="0" x="0" id="text-entity-documents-075aa3b2-4831-5126-aa8d-2ac77a2ec4bb-attr-3-type" class="er entityLabel">DocumentType</text><rect height="21" width="45.14283752441406" y="66" x="78.37608337402344" class="er attributeBoxOdd"/><text style="dominant-baseline: middle; font-size: 10.2px;" transform="translate(83.37608337402344,76.5)" y="0" x="0" id="text-entity-documents-075aa3b2-4831-5126-aa8d-2ac77a2ec4bb-attr-3-name" class="er entityLabel">type</text><rect height="21" width="23" y="66" x="123.5189208984375" class="er attributeBoxOdd"/><text style="dominant-baseline: middle; font-size: 10.2px;" transform="translate(128.5189208984375,76.5)" y="0" x="0" id="text-entity-documents-075aa3b2-4831-5126-aa8d-2ac77a2ec4bb-attr-3-comment" class="er entityLabel"/></g><g transform="translate(505.2064208984375,249 )" id="entity-transactions-a3d7e83a-4348-578f-b8ec-7c8b8dbef31a"><rect height="129" width="165.0832977294922" y="0" x="0" class="er entityBox"/><text style="dominant-baseline: middle; text-anchor: middle; font-size: 12px;" transform="translate(82.5416488647461,11)" y="0" x="0" id="text-entity-transactions-a3d7e83a-4348-578f-b8ec-7c8b8dbef31a" class="er entityLabel">transactions</text><rect height="23" width="90.9375" y="22" x="0" class="er attributeBoxOdd"/><text style="dominant-baseline: middle; font-size: 10.2px;" transform="translate(5,33.5)" y="0" x="0" id="text-entity-transactions-a3d7e83a-4348-578f-b8ec-7c8b8dbef31a-attr-1-type" class="er entityLabel">String</text><rect height="23" width="51.14579772949219" y="22" x="90.9375" class="er attributeBoxOdd"/><text style="dominant-baseline: middle; font-size: 10.2px;" transform="translate(95.9375,33.5)" y="0" x="0" id="text-entity-transactions-a3d7e83a-4348-578f-b8ec-7c8b8dbef31a-attr-1-name" class="er entityLabel">id</text><rect height="23" width="23" y="22" x="142.0832977294922" class="er attributeBoxOdd"/><text style="dominant-baseline: middle; font-size: 10.2px;" transform="translate(147.0832977294922,33.5)" y="0" x="0" id="text-entity-transactions-a3d7e83a-4348-578f-b8ec-7c8b8dbef31a-attr-1-comment" class="er entityLabel">🗝️</text><rect height="21" width="90.9375" y="45" x="0" class="er attributeBoxEven"/><text style="dominant-baseline: middle; font-size: 10.2px;" transform="translate(5,55.5)" y="0" x="0" id="text-entity-transactions-a3d7e83a-4348-578f-b8ec-7c8b8dbef31a-attr-2-type" class="er entityLabel">Float</text><rect height="21" width="51.14579772949219" y="45" x="90.9375" class="er attributeBoxEven"/><text style="dominant-baseline: middle; font-size: 10.2px;" transform="translate(95.9375,55.5)" y="0" x="0" id="text-entity-transactions-a3d7e83a-4348-578f-b8ec-7c8b8dbef31a-attr-2-name" class="er entityLabel">value</text><rect height="21" width="23" y="45" x="142.0832977294922" class="er attributeBoxEven"/><text style="dominant-baseline: middle; font-size: 10.2px;" transform="translate(147.0832977294922,55.5)" y="0" x="0" id="text-entity-transactions-a3d7e83a-4348-578f-b8ec-7c8b8dbef31a-attr-2-comment" class="er entityLabel"/><rect height="21" width="90.9375" y="66" x="0" class="er attributeBoxOdd"/><text style="dominant-baseline: middle; font-size: 10.2px;" transform="translate(5,76.5)" y="0" x="0" id="text-entity-transactions-a3d7e83a-4348-578f-b8ec-7c8b8dbef31a-attr-3-type" class="er entityLabel">String</text><rect height="21" width="51.14579772949219" y="66" x="90.9375" class="er attributeBoxOdd"/><text style="dominant-baseline: middle; font-size: 10.2px;" transform="translate(95.9375,76.5)" y="0" x="0" id="text-entity-transactions-a3d7e83a-4348-578f-b8ec-7c8b8dbef31a-attr-3-name" class="er entityLabel">payer_id</text><rect height="21" width="23" y="66" x="142.0832977294922" class="er attributeBoxOdd"/><text style="dominant-baseline: middle; font-size: 10.2px;" transform="translate(147.0832977294922,76.5)" y="0" x="0" id="text-entity-transactions-a3d7e83a-4348-578f-b8ec-7c8b8dbef31a-attr-3-comment" class="er entityLabel"/><rect height="21" width="90.9375" y="87" x="0" class="er attributeBoxEven"/><text style="dominant-baseline: middle; font-size: 10.2px;" transform="translate(5,97.5)" y="0" x="0" id="text-entity-transactions-a3d7e83a-4348-578f-b8ec-7c8b8dbef31a-attr-4-type" class="er entityLabel">String</text><rect height="21" width="51.14579772949219" y="87" x="90.9375" class="er attributeBoxEven"/><text style="dominant-baseline: middle; font-size: 10.2px;" transform="translate(95.9375,97.5)" y="0" x="0" id="text-entity-transactions-a3d7e83a-4348-578f-b8ec-7c8b8dbef31a-attr-4-name" class="er entityLabel">payee_id</text><rect height="21" width="23" y="87" x="142.0832977294922" class="er attributeBoxEven"/><text style="dominant-baseline: middle; font-size: 10.2px;" transform="translate(147.0832977294922,97.5)" y="0" x="0" id="text-entity-transactions-a3d7e83a-4348-578f-b8ec-7c8b8dbef31a-attr-4-comment" class="er entityLabel"/><rect height="21" width="90.9375" y="108" x="0" class="er attributeBoxOdd"/><text style="dominant-baseline: middle; font-size: 10.2px;" transform="translate(5,118.5)" y="0" x="0" id="text-entity-transactions-a3d7e83a-4348-578f-b8ec-7c8b8dbef31a-attr-5-type" class="er entityLabel">TransactionStatus</text><rect height="21" width="51.14579772949219" y="108" x="90.9375" class="er attributeBoxOdd"/><text style="dominant-baseline: middle; font-size: 10.2px;" transform="translate(95.9375,118.5)" y="0" x="0" id="text-entity-transactions-a3d7e83a-4348-578f-b8ec-7c8b8dbef31a-attr-5-name" class="er entityLabel">status</text><rect height="21" width="23" y="108" x="142.0832977294922" class="er attributeBoxOdd"/><text style="dominant-baseline: middle; font-size: 10.2px;" transform="translate(147.0832977294922,118.5)" y="0" x="0" id="text-entity-transactions-a3d7e83a-4348-578f-b8ec-7c8b8dbef31a-attr-5-comment" class="er entityLabel"/></g><rect height="12" width="83.62051391601562" y="160.6292724609375" x="148.34933471679688" class="er relationshipLabelBox"/><text style="text-anchor: middle; dominant-baseline: middle; font-size: 12px;" y="166.6292724609375" x="190.1595916748047" id="rel1" class="er relationshipLabel">enum:user_role</text><rect height="12" width="55.348358154296875" y="186.3630828857422" x="257.4872283935547" class="er relationshipLabelBox"/><text style="text-anchor: middle; dominant-baseline: middle; font-size: 12px;" y="192.3630828857422" x="285.1614074707031" id="rel2" class="er relationshipLabel">Document</text><rect height="12" width="67.5625" y="191.44577026367188" x="473.2458190917969" class="er relationshipLabelBox"/><text style="text-anchor: middle; dominant-baseline: middle; font-size: 12px;" y="197.44577026367188" x="507.0270690917969" id="rel3" class="er relationshipLabel">Transactions</text><rect height="12" width="56.54833984375" y="416.75" x="303.67279052734375" class="er relationshipLabelBox"/><text style="text-anchor: middle; dominant-baseline: middle; font-size: 12px;" y="422.75" x="331.94696044921875" id="rel4" class="er relationshipLabel">enum:type</text><rect height="12" width="23.344146728515625" y="207.53482055664062" x="385.14112854003906" class="er relationshipLabelBox"/><text style="text-anchor: middle; dominant-baseline: middle; font-size: 12px;" y="213.53482055664062" x="396.8132019042969" id="rel5" class="er relationshipLabel">user</text><rect height="12" width="65.125" y="422" x="555.185546875" class="er relationshipLabelBox"/><text style="text-anchor: middle; dominant-baseline: middle; font-size: 12px;" y="428" x="587.748046875" id="rel6" class="er relationshipLabel">enum:status</text><rect height="12" width="29.39215087890625" y="161.22622680664062" x="555.0221862792969" class="er relationshipLabelBox"/><text style="text-anchor: middle; dominant-baseline: middle; font-size: 12px;" y="167.22622680664062" x="569.71826171875" id="rel7" class="er relationshipLabel">payer</text></svg>