<svg aria-roledescription="er" role="graphics-document document" viewBox="0 0 186.5189208984375 478" style="max-width: 186.519px; background-color: white;" xmlns:xlink="http://www.w3.org/1999/xlink" xmlns="http://www.w3.org/2000/svg" width="100%" id="my-svg"><style>#my-svg{font-family:"trebuchet ms",verdana,arial,sans-serif;font-size:16px;fill:#ccc;}#my-svg .error-icon{fill:#a44141;}#my-svg .error-text{fill:#ddd;stroke:#ddd;}#my-svg .edge-thickness-normal{stroke-width:2px;}#my-svg .edge-thickness-thick{stroke-width:3.5px;}#my-svg .edge-pattern-solid{stroke-dasharray:0;}#my-svg .edge-pattern-dashed{stroke-dasharray:3;}#my-svg .edge-pattern-dotted{stroke-dasharray:2;}#my-svg .marker{fill:lightgrey;stroke:lightgrey;}#my-svg .marker.cross{stroke:lightgrey;}#my-svg svg{font-family:"trebuchet ms",verdana,arial,sans-serif;font-size:16px;}#my-svg .entityBox{fill:#1f2020;stroke:#81B1DB;}#my-svg .attributeBoxOdd{fill:hsl(0, 0%, 32%);stroke:#81B1DB;}#my-svg .attributeBoxEven{fill:hsl(0, 0%, 22%);stroke:#81B1DB;}#my-svg .relationshipLabelBox{fill:hsl(20, 1.5873015873%, 12.3529411765%);opacity:0.7;background-color:hsl(20, 1.5873015873%, 12.3529411765%);}#my-svg .relationshipLabelBox rect{opacity:0.5;}#my-svg .relationshipLine{stroke:lightgrey;}#my-svg .entityTitleText{text-anchor:middle;font-size:18px;fill:#ccc;}#my-svg #MD_PARENT_START{fill:#f5f5f5!important;stroke:lightgrey!important;stroke-width:1;}#my-svg #MD_PARENT_END{fill:#f5f5f5!important;stroke:lightgrey!important;stroke-width:1;}#my-svg :root{--mermaid-font-family:"trebuchet ms",verdana,arial,sans-serif;}</style><g/><defs><marker orient="auto" markerHeight="240" markerWidth="190" refY="7" refX="0" id="MD_PARENT_START"><path d="M 18,7 L9,13 L1,7 L9,1 Z"/></marker></defs><defs><marker orient="auto" markerHeight="28" markerWidth="20" refY="7" refX="19" id="MD_PARENT_END"><path d="M 18,7 L9,13 L1,7 L9,1 Z"/></marker></defs><defs><marker orient="auto" markerHeight="18" markerWidth="18" refY="9" refX="0" id="ONLY_ONE_START"><path d="M9,0 L9,18 M15,0 L15,18" fill="none" stroke="gray"/></marker></defs><defs><marker orient="auto" markerHeight="18" markerWidth="18" refY="9" refX="18" id="ONLY_ONE_END"><path d="M3,0 L3,18 M9,0 L9,18" fill="none" stroke="gray"/></marker></defs><defs><marker orient="auto" markerHeight="18" markerWidth="30" refY="9" refX="0" id="ZERO_OR_ONE_START"><circle r="6" cy="9" cx="21" fill="white" stroke="gray"/><path d="M9,0 L9,18" fill="none" stroke="gray"/></marker></defs><defs><marker orient="auto" markerHeight="18" markerWidth="30" refY="9" refX="30" id="ZERO_OR_ONE_END"><circle r="6" cy="9" cx="9" fill="white" stroke="gray"/><path d="M21,0 L21,18" fill="none" stroke="gray"/></marker></defs><defs><marker orient="auto" markerHeight="36" markerWidth="45" refY="18" refX="18" id="ONE_OR_MORE_START"><path d="M0,18 Q 18,0 36,18 Q 18,36 0,18 M42,9 L42,27" fill="none" stroke="gray"/></marker></defs><defs><marker orient="auto" markerHeight="36" markerWidth="45" refY="18" refX="27" id="ONE_OR_MORE_END"><path d="M3,9 L3,27 M9,18 Q27,0 45,18 Q27,36 9,18" fill="none" stroke="gray"/></marker></defs><defs><marker orient="auto" markerHeight="36" markerWidth="57" refY="18" refX="18" id="ZERO_OR_MORE_START"><circle r="6" cy="18" cx="48" fill="white" stroke="gray"/><path d="M0,18 Q18,0 36,18 Q18,36 0,18" fill="none" stroke="gray"/></marker></defs><defs><marker orient="auto" markerHeight="36" markerWidth="57" refY="18" refX="39" id="ZERO_OR_MORE_END"><circle r="6" cy="18" cx="9" fill="white" stroke="gray"/><path d="M21,18 Q39,0 57,18 Q39,36 21,18" fill="none" stroke="gray"/></marker></defs><path style="stroke: gray; fill: none;" marker-start="url(#ZERO_OR_MORE_START)" marker-end="url(#ZERO_OR_MORE_END)" d="M69.99742836365725,107L65.5411003779175,115.33333333333333C61.08477239217775,123.66666666666667,52.17211642069825,140.33333333333334,52.17211642069825,157C52.17211642069825,173.66666666666666,61.08477239217775,190.33333333333334,65.5411003779175,198.66666666666666L69.99742836365725,207" class="er relationshipLine"/><path style="stroke: gray; fill: none;" marker-start="url(#ZERO_OR_ONE_START)" marker-end="url(#ONLY_ONE_END)" d="M93.25946044921875,294L93.25946044921875,302.3333333333333C93.25946044921875,310.6666666666667,93.25946044921875,327.3333333333333,93.25946044921875,344C93.25946044921875,360.6666666666667,93.25946044921875,377.3333333333333,93.25946044921875,385.6666666666667L93.25946044921875,394" class="er relationshipLine"/><path style="stroke: gray; fill: none;" marker-start="url(#ZERO_OR_ONE_START)" marker-end="url(#ONLY_ONE_END)" d="M116.52149253478025,207L120.97782052052001,198.66666666666666C125.43414850625975,190.33333333333334,134.34680447773925,173.66666666666666,134.34680447773925,157C134.34680447773925,140.33333333333334,125.43414850625975,123.66666666666667,120.97782052051998,115.33333333333333L116.52149253478025,107" class="er relationshipLine"/><g transform="translate(38.021209716796875,394 )" id="entity-DocumentType-b7895c75-1f61-5cd1-b37a-f66b7f5fbbf2"><rect height="64" width="110.47650146484375" y="0" x="0" class="er entityBox"/><text style="dominant-baseline: middle; text-anchor: middle; font-size: 12px;" transform="translate(55.238250732421875,11)" y="0" x="0" id="text-entity-DocumentType-b7895c75-1f61-5cd1-b37a-f66b7f5fbbf2" class="er entityLabel">DocumentType</text><rect height="21" width="55.238250732421875" y="22" x="0" class="er attributeBoxOdd"/><text style="dominant-baseline: middle; font-size: 10.2px;" transform="translate(5,32.5)" y="0" x="0" id="text-entity-DocumentType-b7895c75-1f61-5cd1-b37a-f66b7f5fbbf2-attr-1-type" class="er entityLabel">CPF</text><rect height="21" width="55.238250732421875" y="22" x="55.238250732421875" class="er attributeBoxOdd"/><text style="dominant-baseline: middle; font-size: 10.2px;" transform="translate(60.238250732421875,32.5)" y="0" x="0" id="text-entity-DocumentType-b7895c75-1f61-5cd1-b37a-f66b7f5fbbf2-attr-1-name" class="er entityLabel">CPF</text><rect height="21" width="55.238250732421875" y="43" x="0" class="er attributeBoxEven"/><text style="dominant-baseline: middle; font-size: 10.2px;" transform="translate(5,53.5)" y="0" x="0" id="text-entity-DocumentType-b7895c75-1f61-5cd1-b37a-f66b7f5fbbf2-attr-2-type" class="er entityLabel">CNPJ</text><rect height="21" width="55.238250732421875" y="43" x="55.238250732421875" class="er attributeBoxEven"/><text style="dominant-baseline: middle; font-size: 10.2px;" transform="translate(60.238250732421875,53.5)" y="0" x="0" id="text-entity-DocumentType-b7895c75-1f61-5cd1-b37a-f66b7f5fbbf2-attr-2-name" class="er entityLabel">CNPJ</text></g><g transform="translate(43.25946044921875,20 )" id="entity-users-33ae1e26-be31-5c1d-bf65-e859e9d0308e"><rect height="87" width="100" y="0" x="0" class="er entityBox"/><text style="dominant-baseline: middle; text-anchor: middle; font-size: 12px;" transform="translate(50,11)" y="0" x="0" id="text-entity-users-33ae1e26-be31-5c1d-bf65-e859e9d0308e" class="er entityLabel">users</text><rect height="23" width="38.08267720540365" y="22" x="0" class="er attributeBoxOdd"/><text style="dominant-baseline: middle; font-size: 10.2px;" transform="translate(5,33.5)" y="0" x="0" id="text-entity-users-33ae1e26-be31-5c1d-bf65-e859e9d0308e-attr-1-type" class="er entityLabel">String</text><rect height="23" width="37.36589558919271" y="22" x="38.08267720540365" class="er attributeBoxOdd"/><text style="dominant-baseline: middle; font-size: 10.2px;" transform="translate(43.08267720540365,33.5)" y="0" x="0" id="text-entity-users-33ae1e26-be31-5c1d-bf65-e859e9d0308e-attr-1-name" class="er entityLabel">id</text><rect height="23" width="24.551427205403645" y="22" x="75.44857279459636" class="er attributeBoxOdd"/><text style="dominant-baseline: middle; font-size: 10.2px;" transform="translate(80.44857279459636,33.5)" y="0" x="0" id="text-entity-users-33ae1e26-be31-5c1d-bf65-e859e9d0308e-attr-1-comment" class="er entityLabel">🗝️</text><rect height="21" width="38.08267720540365" y="45" x="0" class="er attributeBoxEven"/><text style="dominant-baseline: middle; font-size: 10.2px;" transform="translate(5,55.5)" y="0" x="0" id="text-entity-users-33ae1e26-be31-5c1d-bf65-e859e9d0308e-attr-2-type" class="er entityLabel">String</text><rect height="21" width="37.36589558919271" y="45" x="38.08267720540365" class="er attributeBoxEven"/><text style="dominant-baseline: middle; font-size: 10.2px;" transform="translate(43.08267720540365,55.5)" y="0" x="0" id="text-entity-users-33ae1e26-be31-5c1d-bf65-e859e9d0308e-attr-2-name" class="er entityLabel">name</text><rect height="21" width="24.551427205403645" y="45" x="75.44857279459636" class="er attributeBoxEven"/><text style="dominant-baseline: middle; font-size: 10.2px;" transform="translate(80.44857279459636,55.5)" y="0" x="0" id="text-entity-users-33ae1e26-be31-5c1d-bf65-e859e9d0308e-attr-2-comment" class="er entityLabel"/><rect height="21" width="38.08267720540365" y="66" x="0" class="er attributeBoxOdd"/><text style="dominant-baseline: middle; font-size: 10.2px;" transform="translate(5,76.5)" y="0" x="0" id="text-entity-users-33ae1e26-be31-5c1d-bf65-e859e9d0308e-attr-3-type" class="er entityLabel">String</text><rect height="21" width="37.36589558919271" y="66" x="38.08267720540365" class="er attributeBoxOdd"/><text style="dominant-baseline: middle; font-size: 10.2px;" transform="translate(43.08267720540365,76.5)" y="0" x="0" id="text-entity-users-33ae1e26-be31-5c1d-bf65-e859e9d0308e-attr-3-name" class="er entityLabel">email</text><rect height="21" width="24.551427205403645" y="66" x="75.44857279459636" class="er attributeBoxOdd"/><text style="dominant-baseline: middle; font-size: 10.2px;" transform="translate(80.44857279459636,76.5)" y="0" x="0" id="text-entity-users-33ae1e26-be31-5c1d-bf65-e859e9d0308e-attr-3-comment" class="er entityLabel"/></g><g transform="translate(20,207 )" id="entity-documents-075aa3b2-4831-5126-aa8d-2ac77a2ec4bb"><rect height="87" width="146.5189208984375" y="0" x="0" class="er entityBox"/><text style="dominant-baseline: middle; text-anchor: middle; font-size: 12px;" transform="translate(73.25946044921875,11)" y="0" x="0" id="text-entity-documents-075aa3b2-4831-5126-aa8d-2ac77a2ec4bb" class="er entityLabel">documents</text><rect height="23" width="78.37608337402344" y="22" x="0" class="er attributeBoxOdd"/><text style="dominant-baseline: middle; font-size: 10.2px;" transform="translate(5,33.5)" y="0" x="0" id="text-entity-documents-075aa3b2-4831-5126-aa8d-2ac77a2ec4bb-attr-1-type" class="er entityLabel">String</text><rect height="23" width="45.14283752441406" y="22" x="78.37608337402344" class="er attributeBoxOdd"/><text style="dominant-baseline: middle; font-size: 10.2px;" transform="translate(83.37608337402344,33.5)" y="0" x="0" id="text-entity-documents-075aa3b2-4831-5126-aa8d-2ac77a2ec4bb-attr-1-name" class="er entityLabel">id</text><rect height="23" width="23" y="22" x="123.5189208984375" class="er attributeBoxOdd"/><text style="dominant-baseline: middle; font-size: 10.2px;" transform="translate(128.5189208984375,33.5)" y="0" x="0" id="text-entity-documents-075aa3b2-4831-5126-aa8d-2ac77a2ec4bb-attr-1-comment" class="er entityLabel">🗝️</text><rect height="21" width="78.37608337402344" y="45" x="0" class="er attributeBoxEven"/><text style="dominant-baseline: middle; font-size: 10.2px;" transform="translate(5,55.5)" y="0" x="0" id="text-entity-documents-075aa3b2-4831-5126-aa8d-2ac77a2ec4bb-attr-2-type" class="er entityLabel">Int</text><rect height="21" width="45.14283752441406" y="45" x="78.37608337402344" class="er attributeBoxEven"/><text style="dominant-baseline: middle; font-size: 10.2px;" transform="translate(83.37608337402344,55.5)" y="0" x="0" id="text-entity-documents-075aa3b2-4831-5126-aa8d-2ac77a2ec4bb-attr-2-name" class="er entityLabel">number</text><rect height="21" width="23" y="45" x="123.5189208984375" class="er attributeBoxEven"/><text style="dominant-baseline: middle; font-size: 10.2px;" transform="translate(128.5189208984375,55.5)" y="0" x="0" id="text-entity-documents-075aa3b2-4831-5126-aa8d-2ac77a2ec4bb-attr-2-comment" class="er entityLabel"/><rect height="21" width="78.37608337402344" y="66" x="0" class="er attributeBoxOdd"/><text style="dominant-baseline: middle; font-size: 10.2px;" transform="translate(5,76.5)" y="0" x="0" id="text-entity-documents-075aa3b2-4831-5126-aa8d-2ac77a2ec4bb-attr-3-type" class="er entityLabel">DocumentType</text><rect height="21" width="45.14283752441406" y="66" x="78.37608337402344" class="er attributeBoxOdd"/><text style="dominant-baseline: middle; font-size: 10.2px;" transform="translate(83.37608337402344,76.5)" y="0" x="0" id="text-entity-documents-075aa3b2-4831-5126-aa8d-2ac77a2ec4bb-attr-3-name" class="er entityLabel">type</text><rect height="21" width="23" y="66" x="123.5189208984375" class="er attributeBoxOdd"/><text style="dominant-baseline: middle; font-size: 10.2px;" transform="translate(128.5189208984375,76.5)" y="0" x="0" id="text-entity-documents-075aa3b2-4831-5126-aa8d-2ac77a2ec4bb-attr-3-comment" class="er entityLabel"/></g><rect height="12" width="55.34834289550781" y="151.00001525878906" x="24.497943878173828" class="er relationshipLabelBox"/><text style="text-anchor: middle; dominant-baseline: middle; font-size: 12px;" y="157.00001525878906" x="52.172115325927734" id="rel1" class="er relationshipLabel">Document</text><rect height="12" width="56.54833984375" y="338" x="64.98529052734375" class="er relationshipLabelBox"/><text style="text-anchor: middle; dominant-baseline: middle; font-size: 12px;" y="344" x="93.25946044921875" id="rel2" class="er relationshipLabel">enum:type</text><rect height="12" width="23.344131469726562" y="151" x="122.67473602294922" class="er relationshipLabelBox"/><text style="text-anchor: middle; dominant-baseline: middle; font-size: 12px;" y="157" x="134.3468017578125" id="rel3" class="er relationshipLabel">user</text></svg>