<svg aria-roledescription="er" role="graphics-document document" viewBox="0 0 186.5189208984375 499" style="max-width: 186.519px; background-color: white;" xmlns:xlink="http://www.w3.org/1999/xlink" xmlns="http://www.w3.org/2000/svg" width="100%" id="my-svg"><style>#my-svg{font-family:"trebuchet ms",verdana,arial,sans-serif;font-size:16px;fill:#ccc;}#my-svg .error-icon{fill:#a44141;}#my-svg .error-text{fill:#ddd;stroke:#ddd;}#my-svg .edge-thickness-normal{stroke-width:2px;}#my-svg .edge-thickness-thick{stroke-width:3.5px;}#my-svg .edge-pattern-solid{stroke-dasharray:0;}#my-svg .edge-pattern-dashed{stroke-dasharray:3;}#my-svg .edge-pattern-dotted{stroke-dasharray:2;}#my-svg .marker{fill:lightgrey;stroke:lightgrey;}#my-svg .marker.cross{stroke:lightgrey;}#my-svg svg{font-family:"trebuchet ms",verdana,arial,sans-serif;font-size:16px;}#my-svg .entityBox{fill:#1f2020;stroke:#81B1DB;}#my-svg .attributeBoxOdd{fill:hsl(0, 0%, 32%);stroke:#81B1DB;}#my-svg .attributeBoxEven{fill:hsl(0, 0%, 22%);stroke:#81B1DB;}#my-svg .relationshipLabelBox{fill:hsl(20, 1.5873015873%, 12.3529411765%);opacity:0.7;background-color:hsl(20, 1.5873015873%, 12.3529411765%);}#my-svg .relationshipLabelBox rect{opacity:0.5;}#my-svg .relationshipLine{stroke:lightgrey;}#my-svg .entityTitleText{text-anchor:middle;font-size:18px;fill:#ccc;}#my-svg #MD_PARENT_START{fill:#f5f5f5!important;stroke:lightgrey!important;stroke-width:1;}#my-svg #MD_PARENT_END{fill:#f5f5f5!important;stroke:lightgrey!important;stroke-width:1;}#my-svg :root{--mermaid-font-family:"trebuchet ms",verdana,arial,sans-serif;}</style><g/><defs><marker orient="auto" markerHeight="240" markerWidth="190" refY="7" refX="0" id="MD_PARENT_START"><path d="M 18,7 L9,13 L1,7 L9,1 Z"/></marker></defs><defs><marker orient="auto" markerHeight="28" markerWidth="20" refY="7" refX="19" id="MD_PARENT_END"><path d="M 18,7 L9,13 L1,7 L9,1 Z"/></marker></defs><defs><marker orient="auto" markerHeight="18" markerWidth="18" refY="9" refX="0" id="ONLY_ONE_START"><path d="M9,0 L9,18 M15,0 L15,18" fill="none" stroke="gray"/></marker></defs><defs><marker orient="auto" markerHeight="18" markerWidth="18" refY="9" refX="18" id="ONLY_ONE_END"><path d="M3,0 L3,18 M9,0 L9,18" fill="none" stroke="gray"/></marker></defs><defs><marker orient="auto" markerHeight="18" markerWidth="30" refY="9" refX="0" id="ZERO_OR_ONE_START"><circle r="6" cy="9" cx="21" fill="white" stroke="gray"/><path d="M9,0 L9,18" fill="none" stroke="gray"/></marker></defs><defs><marker orient="auto" markerHeight="18" markerWidth="30" refY="9" refX="30" id="ZERO_OR_ONE_END"><circle r="6" cy="9" cx="9" fill="white" stroke="gray"/><path d="M21,0 L21,18" fill="none" stroke="gray"/></marker></defs><defs><marker orient="auto" markerHeight="36" markerWidth="45" refY="18" refX="18" id="ONE_OR_MORE_START"><path d="M0,18 Q 18,0 36,18 Q 18,36 0,18 M42,9 L42,27" fill="none" stroke="gray"/></marker></defs><defs><marker orient="auto" markerHeight="36" markerWidth="45" refY="18" refX="27" id="ONE_OR_MORE_END"><path d="M3,9 L3,27 M9,18 Q27,0 45,18 Q27,36 9,18" fill="none" stroke="gray"/></marker></defs><defs><marker orient="auto" markerHeight="36" markerWidth="57" refY="18" refX="18" id="ZERO_OR_MORE_START"><circle r="6" cy="18" cx="48" fill="white" stroke="gray"/><path d="M0,18 Q18,0 36,18 Q18,36 0,18" fill="none" stroke="gray"/></marker></defs><defs><marker orient="auto" markerHeight="36" markerWidth="57" refY="18" refX="39" id="ZERO_OR_MORE_END"><circle r="6" cy="18" cx="9" fill="white" stroke="gray"/><path d="M21,18 Q39,0 57,18 Q39,36 21,18" fill="none" stroke="gray"/></marker></defs><path style="stroke: gray; fill: none;" marker-start="url(#ZERO_OR_MORE_START)" marker-end="url(#ZERO_OR_MORE_END)" d="M67.2979219876803,128L63.29151173127004,136.33333333333334C59.28510147485978,144.66666666666666,51.27228096203927,161.33333333333334,51.72219869136876,178C52.17211642069825,194.66666666666666,61.08477239217775,211.33333333333334,65.5411003779175,219.66666666666666L69.99742836365725,228" class="er relationshipLine"/><path style="stroke: gray; fill: none;" marker-start="url(#ZERO_OR_ONE_START)" marker-end="url(#ONLY_ONE_END)" d="M93.25946044921875,315L93.25946044921875,323.3333333333333C93.25946044921875,331.6666666666667,93.25946044921875,348.3333333333333,93.25946044921875,365C93.25946044921875,381.6666666666667,93.25946044921875,398.3333333333333,93.25946044921875,406.6666666666667L93.25946044921875,415" class="er relationshipLine"/><path style="stroke: gray; fill: none;" marker-start="url(#ZERO_OR_ONE_START)" marker-end="url(#ONLY_ONE_END)" d="M116.52149253478025,228L120.97782052052001,219.66666666666666C125.43414850625975,211.33333333333334,134.34680447773925,194.66666666666666,134.79672220706874,178C135.24663993639822,161.33333333333334,127.23381942357771,144.66666666666666,123.22740916716747,136.33333333333334L119.2209989107572,128" class="er relationshipLine"/><g transform="translate(38.021209716796875,415 )" id="entity-DocumentType-b7895c75-1f61-5cd1-b37a-f66b7f5fbbf2"><rect height="64" width="110.47650146484375" y="0" x="0" class="er entityBox"/><text style="dominant-baseline: middle; text-anchor: middle; font-size: 12px;" transform="translate(55.238250732421875,11)" y="0" x="0" id="text-entity-DocumentType-b7895c75-1f61-5cd1-b37a-f66b7f5fbbf2" class="er entityLabel">DocumentType</text><rect height="21" width="55.238250732421875" y="22" x="0" class="er attributeBoxOdd"/><text style="dominant-baseline: middle; font-size: 10.2px;" transform="translate(5,32.5)" y="0" x="0" id="text-entity-DocumentType-b7895c75-1f61-5cd1-b37a-f66b7f5fbbf2-attr-1-type" class="er entityLabel">CPF</text><rect height="21" width="55.238250732421875" y="22" x="55.238250732421875" class="er attributeBoxOdd"/><text style="dominant-baseline: middle; font-size: 10.2px;" transform="translate(60.238250732421875,32.5)" y="0" x="0" id="text-entity-DocumentType-b7895c75-1f61-5cd1-b37a-f66b7f5fbbf2-attr-1-name" class="er entityLabel">CPF</text><rect height="21" width="55.238250732421875" y="43" x="0" class="er attributeBoxEven"/><text style="dominant-baseline: middle; font-size: 10.2px;" transform="translate(5,53.5)" y="0" x="0" id="text-entity-DocumentType-b7895c75-1f61-5cd1-b37a-f66b7f5fbbf2-attr-2-type" class="er entityLabel">CNPJ</text><rect height="21" width="55.238250732421875" y="43" x="55.238250732421875" class="er attributeBoxEven"/><text style="dominant-baseline: middle; font-size: 10.2px;" transform="translate(60.238250732421875,53.5)" y="0" x="0" id="text-entity-DocumentType-b7895c75-1f61-5cd1-b37a-f66b7f5fbbf2-attr-2-name" class="er entityLabel">CNPJ</text></g><g transform="translate(36.62181854248047,20 )" id="entity-users-33ae1e26-be31-5c1d-bf65-e859e9d0308e"><rect height="108" width="113.27528381347656" y="0" x="0" class="er entityBox"/><text style="dominant-baseline: middle; text-anchor: middle; font-size: 12px;" transform="translate(56.63764190673828,11)" y="0" x="0" id="text-entity-users-33ae1e26-be31-5c1d-bf65-e859e9d0308e" class="er entityLabel">users</text><rect height="23" width="36.53125" y="22" x="0" class="er attributeBoxOdd"/><text style="dominant-baseline: middle; font-size: 10.2px;" transform="translate(5,33.5)" y="0" x="0" id="text-entity-users-33ae1e26-be31-5c1d-bf65-e859e9d0308e-attr-1-type" class="er entityLabel">String</text><rect height="23" width="53.74403381347656" y="22" x="36.53125" class="er attributeBoxOdd"/><text style="dominant-baseline: middle; font-size: 10.2px;" transform="translate(41.53125,33.5)" y="0" x="0" id="text-entity-users-33ae1e26-be31-5c1d-bf65-e859e9d0308e-attr-1-name" class="er entityLabel">id</text><rect height="23" width="23" y="22" x="90.27528381347656" class="er attributeBoxOdd"/><text style="dominant-baseline: middle; font-size: 10.2px;" transform="translate(95.27528381347656,33.5)" y="0" x="0" id="text-entity-users-33ae1e26-be31-5c1d-bf65-e859e9d0308e-attr-1-comment" class="er entityLabel">🗝️</text><rect height="21" width="36.53125" y="45" x="0" class="er attributeBoxEven"/><text style="dominant-baseline: middle; font-size: 10.2px;" transform="translate(5,55.5)" y="0" x="0" id="text-entity-users-33ae1e26-be31-5c1d-bf65-e859e9d0308e-attr-2-type" class="er entityLabel">String</text><rect height="21" width="53.74403381347656" y="45" x="36.53125" class="er attributeBoxEven"/><text style="dominant-baseline: middle; font-size: 10.2px;" transform="translate(41.53125,55.5)" y="0" x="0" id="text-entity-users-33ae1e26-be31-5c1d-bf65-e859e9d0308e-attr-2-name" class="er entityLabel">name</text><rect height="21" width="23" y="45" x="90.27528381347656" class="er attributeBoxEven"/><text style="dominant-baseline: middle; font-size: 10.2px;" transform="translate(95.27528381347656,55.5)" y="0" x="0" id="text-entity-users-33ae1e26-be31-5c1d-bf65-e859e9d0308e-attr-2-comment" class="er entityLabel"/><rect height="21" width="36.53125" y="66" x="0" class="er attributeBoxOdd"/><text style="dominant-baseline: middle; font-size: 10.2px;" transform="translate(5,76.5)" y="0" x="0" id="text-entity-users-33ae1e26-be31-5c1d-bf65-e859e9d0308e-attr-3-type" class="er entityLabel">String</text><rect height="21" width="53.74403381347656" y="66" x="36.53125" class="er attributeBoxOdd"/><text style="dominant-baseline: middle; font-size: 10.2px;" transform="translate(41.53125,76.5)" y="0" x="0" id="text-entity-users-33ae1e26-be31-5c1d-bf65-e859e9d0308e-attr-3-name" class="er entityLabel">password</text><rect height="21" width="23" y="66" x="90.27528381347656" class="er attributeBoxOdd"/><text style="dominant-baseline: middle; font-size: 10.2px;" transform="translate(95.27528381347656,76.5)" y="0" x="0" id="text-entity-users-33ae1e26-be31-5c1d-bf65-e859e9d0308e-attr-3-comment" class="er entityLabel"/><rect height="21" width="36.53125" y="87" x="0" class="er attributeBoxEven"/><text style="dominant-baseline: middle; font-size: 10.2px;" transform="translate(5,97.5)" y="0" x="0" id="text-entity-users-33ae1e26-be31-5c1d-bf65-e859e9d0308e-attr-4-type" class="er entityLabel">String</text><rect height="21" width="53.74403381347656" y="87" x="36.53125" class="er attributeBoxEven"/><text style="dominant-baseline: middle; font-size: 10.2px;" transform="translate(41.53125,97.5)" y="0" x="0" id="text-entity-users-33ae1e26-be31-5c1d-bf65-e859e9d0308e-attr-4-name" class="er entityLabel">email</text><rect height="21" width="23" y="87" x="90.27528381347656" class="er attributeBoxEven"/><text style="dominant-baseline: middle; font-size: 10.2px;" transform="translate(95.27528381347656,97.5)" y="0" x="0" id="text-entity-users-33ae1e26-be31-5c1d-bf65-e859e9d0308e-attr-4-comment" class="er entityLabel"/></g><g transform="translate(20,228 )" id="entity-documents-075aa3b2-4831-5126-aa8d-2ac77a2ec4bb"><rect height="87" width="146.5189208984375" y="0" x="0" class="er entityBox"/><text style="dominant-baseline: middle; text-anchor: middle; font-size: 12px;" transform="translate(73.25946044921875,11)" y="0" x="0" id="text-entity-documents-075aa3b2-4831-5126-aa8d-2ac77a2ec4bb" class="er entityLabel">documents</text><rect height="23" width="78.37608337402344" y="22" x="0" class="er attributeBoxOdd"/><text style="dominant-baseline: middle; font-size: 10.2px;" transform="translate(5,33.5)" y="0" x="0" id="text-entity-documents-075aa3b2-4831-5126-aa8d-2ac77a2ec4bb-attr-1-type" class="er entityLabel">String</text><rect height="23" width="45.14283752441406" y="22" x="78.37608337402344" class="er attributeBoxOdd"/><text style="dominant-baseline: middle; font-size: 10.2px;" transform="translate(83.37608337402344,33.5)" y="0" x="0" id="text-entity-documents-075aa3b2-4831-5126-aa8d-2ac77a2ec4bb-attr-1-name" class="er entityLabel">id</text><rect height="23" width="23" y="22" x="123.5189208984375" class="er attributeBoxOdd"/><text style="dominant-baseline: middle; font-size: 10.2px;" transform="translate(128.5189208984375,33.5)" y="0" x="0" id="text-entity-documents-075aa3b2-4831-5126-aa8d-2ac77a2ec4bb-attr-1-comment" class="er entityLabel">🗝️</text><rect height="21" width="78.37608337402344" y="45" x="0" class="er attributeBoxEven"/><text style="dominant-baseline: middle; font-size: 10.2px;" transform="translate(5,55.5)" y="0" x="0" id="text-entity-documents-075aa3b2-4831-5126-aa8d-2ac77a2ec4bb-attr-2-type" class="er entityLabel">BigInt</text><rect height="21" width="45.14283752441406" y="45" x="78.37608337402344" class="er attributeBoxEven"/><text style="dominant-baseline: middle; font-size: 10.2px;" transform="translate(83.37608337402344,55.5)" y="0" x="0" id="text-entity-documents-075aa3b2-4831-5126-aa8d-2ac77a2ec4bb-attr-2-name" class="er entityLabel">number</text><rect height="21" width="23" y="45" x="123.5189208984375" class="er attributeBoxEven"/><text style="dominant-baseline: middle; font-size: 10.2px;" transform="translate(128.5189208984375,55.5)" y="0" x="0" id="text-entity-documents-075aa3b2-4831-5126-aa8d-2ac77a2ec4bb-attr-2-comment" class="er entityLabel"/><rect height="21" width="78.37608337402344" y="66" x="0" class="er attributeBoxOdd"/><text style="dominant-baseline: middle; font-size: 10.2px;" transform="translate(5,76.5)" y="0" x="0" id="text-entity-documents-075aa3b2-4831-5126-aa8d-2ac77a2ec4bb-attr-3-type" class="er entityLabel">DocumentType</text><rect height="21" width="45.14283752441406" y="66" x="78.37608337402344" class="er attributeBoxOdd"/><text style="dominant-baseline: middle; font-size: 10.2px;" transform="translate(83.37608337402344,76.5)" y="0" x="0" id="text-entity-documents-075aa3b2-4831-5126-aa8d-2ac77a2ec4bb-attr-3-name" class="er entityLabel">type</text><rect height="21" width="23" y="66" x="123.5189208984375" class="er attributeBoxOdd"/><text style="dominant-baseline: middle; font-size: 10.2px;" transform="translate(128.5189208984375,76.5)" y="0" x="0" id="text-entity-documents-075aa3b2-4831-5126-aa8d-2ac77a2ec4bb-attr-3-comment" class="er entityLabel"/></g><rect height="12" width="55.34834289550781" y="172.42083740234375" x="24.061233520507812" class="er relationshipLabelBox"/><text style="text-anchor: middle; dominant-baseline: middle; font-size: 12px;" y="178.42083740234375" x="51.73540496826172" id="rel1" class="er relationshipLabel">Document</text><rect height="12" width="56.54833984375" y="359" x="64.98529052734375" class="er relationshipLabelBox"/><text style="text-anchor: middle; dominant-baseline: middle; font-size: 12px;" y="365" x="93.25946044921875" id="rel2" class="er relationshipLabel">enum:type</text><rect height="12" width="23.344131469726562" y="172.42083740234375" x="123.11144256591797" class="er relationshipLabelBox"/><text style="text-anchor: middle; dominant-baseline: middle; font-size: 12px;" y="178.42083740234375" x="134.78350830078125" id="rel3" class="er relationshipLabel">user</text></svg>