<svg aria-roledescription="er" role="graphics-document document" viewBox="0 0 764.4412841796875 898" style="max-width: 764.441px; background-color: white;" xmlns:xlink="http://www.w3.org/1999/xlink" xmlns="http://www.w3.org/2000/svg" width="100%" id="my-svg"><style>#my-svg{font-family:"trebuchet ms",verdana,arial,sans-serif;font-size:16px;fill:#ccc;}#my-svg .error-icon{fill:#a44141;}#my-svg .error-text{fill:#ddd;stroke:#ddd;}#my-svg .edge-thickness-normal{stroke-width:2px;}#my-svg .edge-thickness-thick{stroke-width:3.5px;}#my-svg .edge-pattern-solid{stroke-dasharray:0;}#my-svg .edge-pattern-dashed{stroke-dasharray:3;}#my-svg .edge-pattern-dotted{stroke-dasharray:2;}#my-svg .marker{fill:lightgrey;stroke:lightgrey;}#my-svg .marker.cross{stroke:lightgrey;}#my-svg svg{font-family:"trebuchet ms",verdana,arial,sans-serif;font-size:16px;}#my-svg .entityBox{fill:#1f2020;stroke:#81B1DB;}#my-svg .attributeBoxOdd{fill:hsl(0, 0%, 32%);stroke:#81B1DB;}#my-svg .attributeBoxEven{fill:hsl(0, 0%, 22%);stroke:#81B1DB;}#my-svg .relationshipLabelBox{fill:hsl(20, 1.5873015873%, 12.3529411765%);opacity:0.7;background-color:hsl(20, 1.5873015873%, 12.3529411765%);}#my-svg .relationshipLabelBox rect{opacity:0.5;}#my-svg .relationshipLine{stroke:lightgrey;}#my-svg .entityTitleText{text-anchor:middle;font-size:18px;fill:#ccc;}#my-svg #MD_PARENT_START{fill:#f5f5f5!important;stroke:lightgrey!important;stroke-width:1;}#my-svg #MD_PARENT_END{fill:#f5f5f5!important;stroke:lightgrey!important;stroke-width:1;}#my-svg :root{--mermaid-font-family:"trebuchet ms",verdana,arial,sans-serif;}</style><g/><defs><marker orient="auto" markerHeight="240" markerWidth="190" refY="7" refX="0" id="MD_PARENT_START"><path d="M 18,7 L9,13 L1,7 L9,1 Z"/></marker></defs><defs><marker orient="auto" markerHeight="28" markerWidth="20" refY="7" refX="19" id="MD_PARENT_END"><path d="M 18,7 L9,13 L1,7 L9,1 Z"/></marker></defs><defs><marker orient="auto" markerHeight="18" markerWidth="18" refY="9" refX="0" id="ONLY_ONE_START"><path d="M9,0 L9,18 M15,0 L15,18" fill="none" stroke="gray"/></marker></defs><defs><marker orient="auto" markerHeight="18" markerWidth="18" refY="9" refX="18" id="ONLY_ONE_END"><path d="M3,0 L3,18 M9,0 L9,18" fill="none" stroke="gray"/></marker></defs><defs><marker orient="auto" markerHeight="18" markerWidth="30" refY="9" refX="0" id="ZERO_OR_ONE_START"><circle r="6" cy="9" cx="21" fill="white" stroke="gray"/><path d="M9,0 L9,18" fill="none" stroke="gray"/></marker></defs><defs><marker orient="auto" markerHeight="18" markerWidth="30" refY="9" refX="30" id="ZERO_OR_ONE_END"><circle r="6" cy="9" cx="9" fill="white" stroke="gray"/><path d="M21,0 L21,18" fill="none" stroke="gray"/></marker></defs><defs><marker orient="auto" markerHeight="36" markerWidth="45" refY="18" refX="18" id="ONE_OR_MORE_START"><path d="M0,18 Q 18,0 36,18 Q 18,36 0,18 M42,9 L42,27" fill="none" stroke="gray"/></marker></defs><defs><marker orient="auto" markerHeight="36" markerWidth="45" refY="18" refX="27" id="ONE_OR_MORE_END"><path d="M3,9 L3,27 M9,18 Q27,0 45,18 Q27,36 9,18" fill="none" stroke="gray"/></marker></defs><defs><marker orient="auto" markerHeight="36" markerWidth="57" refY="18" refX="18" id="ZERO_OR_MORE_START"><circle r="6" cy="18" cx="48" fill="white" stroke="gray"/><path d="M0,18 Q18,0 36,18 Q18,36 0,18" fill="none" stroke="gray"/></marker></defs><defs><marker orient="auto" markerHeight="36" markerWidth="57" refY="18" refX="39" id="ZERO_OR_MORE_END"><circle r="6" cy="18" cx="9" fill="white" stroke="gray"/><path d="M21,18 Q39,0 57,18 Q39,36 21,18" fill="none" stroke="gray"/></marker></defs><path style="stroke: gray; fill: none;" marker-start="url(#ZERO_OR_ONE_START)" marker-end="url(#ONLY_ONE_END)" d="M463.0484085083008,126.59282889864059L400.7642987569173,145.66069074886715C338.4801890055339,164.72855259909372,213.91196950276694,202.86427629954687,151.62785975138345,232.18213814977344C89.34375,261.5,89.34375,282,89.34375,292.25L89.34375,302.5" class="er relationshipLine"/><path style="stroke: gray; fill: none;" marker-start="url(#ZERO_OR_MORE_START)" marker-end="url(#ZERO_OR_MORE_END)" d="M463.0484085083008,152.17876893997192L441.1981671651204,166.9823074499766C419.3479258219401,181.7858459599813,375.6474431355794,211.39292297999063,353.7972017923991,234.52979482332864C331.94696044921875,257.6666666666667,331.94696044921875,274.3333333333333,331.94696044921875,282.6666666666667L331.94696044921875,291" class="er relationshipLine"/><path style="stroke: gray; fill: none;" marker-start="url(#ZERO_OR_MORE_START)" marker-end="url(#ZERO_OR_MORE_END)" d="M531.9469604492188,191L531.9469604492188,199.33333333333334C531.9469604492188,207.66666666666666,531.9469604492188,224.33333333333334,531.9469604492188,248.25C531.9469604492188,272.1666666666667,531.9469604492188,303.3333333333333,531.9469604492188,334.5C531.9469604492188,365.6666666666667,531.9469604492188,396.8333333333333,533.0740295087219,420.75C534.201098568225,444.6666666666667,536.4552366872314,461.3333333333333,537.5823057467345,469.6666666666667L538.7093748062376,478" class="er relationshipLine"/><path style="stroke: gray; fill: none;" marker-start="url(#ZERO_OR_ONE_START)" marker-end="url(#ONLY_ONE_END)" d="M268.3812570826893,378L256.20391927300926,386.3333333333333C244.0265814633293,394.6666666666667,219.6719058439693,411.3333333333333,207.49456803428936,440.5833333333333C195.31723022460938,469.8333333333333,195.31723022460938,511.6666666666667,195.31723022460938,532.5833333333334L195.31723022460938,553.5" class="er relationshipLine"/><path style="stroke: gray; fill: none;" marker-start="url(#ZERO_OR_ONE_START)" marker-end="url(#ONLY_ONE_END)" d="M405.2064208984375,311.6674681599935L442.9965108235677,299.8895567999946C480.78660074869794,288.1116454399957,556.3667805989584,264.5558227199978,588.0068090234736,244.44457802666557C619.6468374479888,224.33333333333334,607.3467144467587,207.66666666666666,601.1966529461438,199.33333333333334L595.0465914455287,191" class="er relationshipLine"/><path style="stroke: gray; fill: none;" marker-start="url(#ZERO_OR_MORE_START)" marker-end="url(#ZERO_OR_MORE_END)" d="M331.94696044921875,378L331.94696044921875,386.3333333333333C331.94696044921875,394.6666666666667,331.94696044921875,411.3333333333333,353.61337153116864,435.08661692840855C375.27978261311847,458.8399005234837,418.61260477701825,489.6798010469674,440.2790158589681,505.09975130870924L461.94542694091797,520.519701570451" class="er relationshipLine"/><path style="stroke: gray; fill: none;" marker-start="url(#ZERO_OR_ONE_START)" marker-end="url(#ONLY_ONE_END)" d="M553.2485656738281,693L553.2485656738281,701.3333333333334C553.2485656738281,709.6666666666666,553.2485656738281,726.3333333333334,553.2485656738281,743C553.2485656738281,759.6666666666666,553.2485656738281,776.3333333333334,553.2485656738281,784.6666666666666L553.2485656738281,793" class="er relationshipLine"/><path style="stroke: gray; fill: none;" marker-start="url(#ZERO_OR_ONE_START)" marker-end="url(#ZERO_OR_ONE_END)" d="M644.5517044067383,505.0278482019486L659.1175804138184,492.1898735016238C673.6834564208984,479.35189880129906,702.8152084350586,453.6759494006495,717.3810844421387,425.2546413669914C731.9469604492188,396.8333333333333,731.9469604492188,365.6666666666667,731.9469604492188,334.5C731.9469604492188,303.3333333333333,731.9469604492188,272.1666666666667,710.0967191060384,241.77979482332864C688.246477762858,211.39292297999063,644.5459950764974,181.7858459599813,622.695753733317,166.9823074499766L600.8455123901367,152.17876893997192" class="er relationshipLine"/><path style="stroke: gray; fill: none;" marker-start="url(#ZERO_OR_ONE_START)" marker-end="url(#ZERO_OR_ONE_END)" d="M470.4554065522693,478L464.0373322017609,469.6666666666667C457.6192578512525,461.3333333333333,444.7831091502356,444.6666666666667,429.4523788282477,428C414.12164850625976,411.3333333333333,396.2963365633007,394.6666666666667,387.38368059182125,386.3333333333333L378.4710246203417,378" class="er relationshipLine"/><g transform="translate(20,302.5 )" id="entity-UserRole-348851bc-4e3e-5e0e-a5b3-6fde704fd893"><rect height="64" width="138.6875" y="0" x="0" class="er entityBox"/><text style="dominant-baseline: middle; text-anchor: middle; font-size: 12px;" transform="translate(69.34375,11)" y="0" x="0" id="text-entity-UserRole-348851bc-4e3e-5e0e-a5b3-6fde704fd893" class="er entityLabel">UserRole</text><rect height="21" width="69.34375" y="22" x="0" class="er attributeBoxOdd"/><text style="dominant-baseline: middle; font-size: 10.2px;" transform="translate(5,32.5)" y="0" x="0" id="text-entity-UserRole-348851bc-4e3e-5e0e-a5b3-6fde704fd893-attr-1-type" class="er entityLabel">CONSUMER</text><rect height="21" width="69.34375" y="22" x="69.34375" class="er attributeBoxOdd"/><text style="dominant-baseline: middle; font-size: 10.2px;" transform="translate(74.34375,32.5)" y="0" x="0" id="text-entity-UserRole-348851bc-4e3e-5e0e-a5b3-6fde704fd893-attr-1-name" class="er entityLabel">CONSUMER</text><rect height="21" width="69.34375" y="43" x="0" class="er attributeBoxEven"/><text style="dominant-baseline: middle; font-size: 10.2px;" transform="translate(5,53.5)" y="0" x="0" id="text-entity-UserRole-348851bc-4e3e-5e0e-a5b3-6fde704fd893-attr-2-type" class="er entityLabel">MERCHANT</text><rect height="21" width="69.34375" y="43" x="69.34375" class="er attributeBoxEven"/><text style="dominant-baseline: middle; font-size: 10.2px;" transform="translate(74.34375,53.5)" y="0" x="0" id="text-entity-UserRole-348851bc-4e3e-5e0e-a5b3-6fde704fd893-attr-2-name" class="er entityLabel">MERCHANT</text></g><g transform="translate(140.0789794921875,553.5 )" id="entity-DocumentType-b7895c75-1f61-5cd1-b37a-f66b7f5fbbf2"><rect height="64" width="110.47650146484375" y="0" x="0" class="er entityBox"/><text style="dominant-baseline: middle; text-anchor: middle; font-size: 12px;" transform="translate(55.238250732421875,11)" y="0" x="0" id="text-entity-DocumentType-b7895c75-1f61-5cd1-b37a-f66b7f5fbbf2" class="er entityLabel">DocumentType</text><rect height="21" width="55.238250732421875" y="22" x="0" class="er attributeBoxOdd"/><text style="dominant-baseline: middle; font-size: 10.2px;" transform="translate(5,32.5)" y="0" x="0" id="text-entity-DocumentType-b7895c75-1f61-5cd1-b37a-f66b7f5fbbf2-attr-1-type" class="er entityLabel">CPF</text><rect height="21" width="55.238250732421875" y="22" x="55.238250732421875" class="er attributeBoxOdd"/><text style="dominant-baseline: middle; font-size: 10.2px;" transform="translate(60.238250732421875,32.5)" y="0" x="0" id="text-entity-DocumentType-b7895c75-1f61-5cd1-b37a-f66b7f5fbbf2-attr-1-name" class="er entityLabel">CPF</text><rect height="21" width="55.238250732421875" y="43" x="0" class="er attributeBoxEven"/><text style="dominant-baseline: middle; font-size: 10.2px;" transform="translate(5,53.5)" y="0" x="0" id="text-entity-DocumentType-b7895c75-1f61-5cd1-b37a-f66b7f5fbbf2-attr-2-type" class="er entityLabel">CNPJ</text><rect height="21" width="55.238250732421875" y="43" x="55.238250732421875" class="er attributeBoxEven"/><text style="dominant-baseline: middle; font-size: 10.2px;" transform="translate(60.238250732421875,53.5)" y="0" x="0" id="text-entity-DocumentType-b7895c75-1f61-5cd1-b37a-f66b7f5fbbf2-attr-2-name" class="er entityLabel">CNPJ</text></g><g transform="translate(480.4829406738281,793 )" id="entity-TransactionStatus-b7be538c-a8ec-5e0a-b9be-21310555a277"><rect height="85" width="145.53125" y="0" x="0" class="er entityBox"/><text style="dominant-baseline: middle; text-anchor: middle; font-size: 12px;" transform="translate(72.765625,11)" y="0" x="0" id="text-entity-TransactionStatus-b7be538c-a8ec-5e0a-b9be-21310555a277" class="er entityLabel">TransactionStatus</text><rect height="21" width="72.765625" y="22" x="0" class="er attributeBoxOdd"/><text style="dominant-baseline: middle; font-size: 10.2px;" transform="translate(5,32.5)" y="0" x="0" id="text-entity-TransactionStatus-b7be538c-a8ec-5e0a-b9be-21310555a277-attr-1-type" class="er entityLabel">PENDING</text><rect height="21" width="72.765625" y="22" x="72.765625" class="er attributeBoxOdd"/><text style="dominant-baseline: middle; font-size: 10.2px;" transform="translate(77.765625,32.5)" y="0" x="0" id="text-entity-TransactionStatus-b7be538c-a8ec-5e0a-b9be-21310555a277-attr-1-name" class="er entityLabel">PENDING</text><rect height="21" width="72.765625" y="43" x="0" class="er attributeBoxEven"/><text style="dominant-baseline: middle; font-size: 10.2px;" transform="translate(5,53.5)" y="0" x="0" id="text-entity-TransactionStatus-b7be538c-a8ec-5e0a-b9be-21310555a277-attr-2-type" class="er entityLabel">COMPLETED</text><rect height="21" width="72.765625" y="43" x="72.765625" class="er attributeBoxEven"/><text style="dominant-baseline: middle; font-size: 10.2px;" transform="translate(77.765625,53.5)" y="0" x="0" id="text-entity-TransactionStatus-b7be538c-a8ec-5e0a-b9be-21310555a277-attr-2-name" class="er entityLabel">COMPLETED</text><rect height="21" width="72.765625" y="64" x="0" class="er attributeBoxOdd"/><text style="dominant-baseline: middle; font-size: 10.2px;" transform="translate(5,74.5)" y="0" x="0" id="text-entity-TransactionStatus-b7be538c-a8ec-5e0a-b9be-21310555a277-attr-3-type" class="er entityLabel">CANCELED</text><rect height="21" width="72.765625" y="64" x="72.765625" class="er attributeBoxOdd"/><text style="dominant-baseline: middle; font-size: 10.2px;" transform="translate(77.765625,74.5)" y="0" x="0" id="text-entity-TransactionStatus-b7be538c-a8ec-5e0a-b9be-21310555a277-attr-3-name" class="er entityLabel">CANCELED</text></g><g transform="translate(463.0484085083008,20 )" id="entity-users-33ae1e26-be31-5c1d-bf65-e859e9d0308e"><rect height="171" width="137.79710388183594" y="0" x="0" class="er entityBox"/><text style="dominant-baseline: middle; text-anchor: middle; font-size: 12px;" transform="translate(68.89855194091797,11)" y="0" x="0" id="text-entity-users-33ae1e26-be31-5c1d-bf65-e859e9d0308e" class="er entityLabel">users</text><rect height="23" width="54.059539794921875" y="22" x="0" class="er attributeBoxOdd"/><text style="dominant-baseline: middle; font-size: 10.2px;" transform="translate(5,33.5)" y="0" x="0" id="text-entity-users-33ae1e26-be31-5c1d-bf65-e859e9d0308e-attr-1-type" class="er entityLabel">String</text><rect height="23" width="60.73756408691406" y="22" x="54.059539794921875" class="er attributeBoxOdd"/><text style="dominant-baseline: middle; font-size: 10.2px;" transform="translate(59.059539794921875,33.5)" y="0" x="0" id="text-entity-users-33ae1e26-be31-5c1d-bf65-e859e9d0308e-attr-1-name" class="er entityLabel">id</text><rect height="23" width="23" y="22" x="114.79710388183594" class="er attributeBoxOdd"/><text style="dominant-baseline: middle; font-size: 10.2px;" transform="translate(119.79710388183594,33.5)" y="0" x="0" id="text-entity-users-33ae1e26-be31-5c1d-bf65-e859e9d0308e-attr-1-comment" class="er entityLabel">🗝️</text><rect height="21" width="54.059539794921875" y="45" x="0" class="er attributeBoxEven"/><text style="dominant-baseline: middle; font-size: 10.2px;" transform="translate(5,55.5)" y="0" x="0" id="text-entity-users-33ae1e26-be31-5c1d-bf65-e859e9d0308e-attr-2-type" class="er entityLabel">String</text><rect height="21" width="60.73756408691406" y="45" x="54.059539794921875" class="er attributeBoxEven"/><text style="dominant-baseline: middle; font-size: 10.2px;" transform="translate(59.059539794921875,55.5)" y="0" x="0" id="text-entity-users-33ae1e26-be31-5c1d-bf65-e859e9d0308e-attr-2-name" class="er entityLabel">name</text><rect height="21" width="23" y="45" x="114.79710388183594" class="er attributeBoxEven"/><text style="dominant-baseline: middle; font-size: 10.2px;" transform="translate(119.79710388183594,55.5)" y="0" x="0" id="text-entity-users-33ae1e26-be31-5c1d-bf65-e859e9d0308e-attr-2-comment" class="er entityLabel"/><rect height="21" width="54.059539794921875" y="66" x="0" class="er attributeBoxOdd"/><text style="dominant-baseline: middle; font-size: 10.2px;" transform="translate(5,76.5)" y="0" x="0" id="text-entity-users-33ae1e26-be31-5c1d-bf65-e859e9d0308e-attr-3-type" class="er entityLabel">String</text><rect height="21" width="60.73756408691406" y="66" x="54.059539794921875" class="er attributeBoxOdd"/><text style="dominant-baseline: middle; font-size: 10.2px;" transform="translate(59.059539794921875,76.5)" y="0" x="0" id="text-entity-users-33ae1e26-be31-5c1d-bf65-e859e9d0308e-attr-3-name" class="er entityLabel">password</text><rect height="21" width="23" y="66" x="114.79710388183594" class="er attributeBoxOdd"/><text style="dominant-baseline: middle; font-size: 10.2px;" transform="translate(119.79710388183594,76.5)" y="0" x="0" id="text-entity-users-33ae1e26-be31-5c1d-bf65-e859e9d0308e-attr-3-comment" class="er entityLabel"/><rect height="21" width="54.059539794921875" y="87" x="0" class="er attributeBoxEven"/><text style="dominant-baseline: middle; font-size: 10.2px;" transform="translate(5,97.5)" y="0" x="0" id="text-entity-users-33ae1e26-be31-5c1d-bf65-e859e9d0308e-attr-4-type" class="er entityLabel">String</text><rect height="21" width="60.73756408691406" y="87" x="54.059539794921875" class="er attributeBoxEven"/><text style="dominant-baseline: middle; font-size: 10.2px;" transform="translate(59.059539794921875,97.5)" y="0" x="0" id="text-entity-users-33ae1e26-be31-5c1d-bf65-e859e9d0308e-attr-4-name" class="er entityLabel">email</text><rect height="21" width="23" y="87" x="114.79710388183594" class="er attributeBoxEven"/><text style="dominant-baseline: middle; font-size: 10.2px;" transform="translate(119.79710388183594,97.5)" y="0" x="0" id="text-entity-users-33ae1e26-be31-5c1d-bf65-e859e9d0308e-attr-4-comment" class="er entityLabel"/><rect height="21" width="54.059539794921875" y="108" x="0" class="er attributeBoxOdd"/><text style="dominant-baseline: middle; font-size: 10.2px;" transform="translate(5,118.5)" y="0" x="0" id="text-entity-users-33ae1e26-be31-5c1d-bf65-e859e9d0308e-attr-5-type" class="er entityLabel">UserRole</text><rect height="21" width="60.73756408691406" y="108" x="54.059539794921875" class="er attributeBoxOdd"/><text style="dominant-baseline: middle; font-size: 10.2px;" transform="translate(59.059539794921875,118.5)" y="0" x="0" id="text-entity-users-33ae1e26-be31-5c1d-bf65-e859e9d0308e-attr-5-name" class="er entityLabel">user_role</text><rect height="21" width="23" y="108" x="114.79710388183594" class="er attributeBoxOdd"/><text style="dominant-baseline: middle; font-size: 10.2px;" transform="translate(119.79710388183594,118.5)" y="0" x="0" id="text-entity-users-33ae1e26-be31-5c1d-bf65-e859e9d0308e-attr-5-comment" class="er entityLabel"/><rect height="21" width="54.059539794921875" y="129" x="0" class="er attributeBoxEven"/><text style="dominant-baseline: middle; font-size: 10.2px;" transform="translate(5,139.5)" y="0" x="0" id="text-entity-users-33ae1e26-be31-5c1d-bf65-e859e9d0308e-attr-6-type" class="er entityLabel">DateTime</text><rect height="21" width="60.73756408691406" y="129" x="54.059539794921875" class="er attributeBoxEven"/><text style="dominant-baseline: middle; font-size: 10.2px;" transform="translate(59.059539794921875,139.5)" y="0" x="0" id="text-entity-users-33ae1e26-be31-5c1d-bf65-e859e9d0308e-attr-6-name" class="er entityLabel">created_at</text><rect height="21" width="23" y="129" x="114.79710388183594" class="er attributeBoxEven"/><text style="dominant-baseline: middle; font-size: 10.2px;" transform="translate(119.79710388183594,139.5)" y="0" x="0" id="text-entity-users-33ae1e26-be31-5c1d-bf65-e859e9d0308e-attr-6-comment" class="er entityLabel"/><rect height="21" width="54.059539794921875" y="150" x="0" class="er attributeBoxOdd"/><text style="dominant-baseline: middle; font-size: 10.2px;" transform="translate(5,160.5)" y="0" x="0" id="text-entity-users-33ae1e26-be31-5c1d-bf65-e859e9d0308e-attr-7-type" class="er entityLabel">DateTime</text><rect height="21" width="60.73756408691406" y="150" x="54.059539794921875" class="er attributeBoxOdd"/><text style="dominant-baseline: middle; font-size: 10.2px;" transform="translate(59.059539794921875,160.5)" y="0" x="0" id="text-entity-users-33ae1e26-be31-5c1d-bf65-e859e9d0308e-attr-7-name" class="er entityLabel">updated_at</text><rect height="21" width="23" y="150" x="114.79710388183594" class="er attributeBoxOdd"/><text style="dominant-baseline: middle; font-size: 10.2px;" transform="translate(119.79710388183594,160.5)" y="0" x="0" id="text-entity-users-33ae1e26-be31-5c1d-bf65-e859e9d0308e-attr-7-comment" class="er entityLabel"/></g><g transform="translate(258.6875,291 )" id="entity-documents-075aa3b2-4831-5126-aa8d-2ac77a2ec4bb"><rect height="87" width="146.5189208984375" y="0" x="0" class="er entityBox"/><text style="dominant-baseline: middle; text-anchor: middle; font-size: 12px;" transform="translate(73.25946044921875,11)" y="0" x="0" id="text-entity-documents-075aa3b2-4831-5126-aa8d-2ac77a2ec4bb" class="er entityLabel">documents</text><rect height="23" width="78.37608337402344" y="22" x="0" class="er attributeBoxOdd"/><text style="dominant-baseline: middle; font-size: 10.2px;" transform="translate(5,33.5)" y="0" x="0" id="text-entity-documents-075aa3b2-4831-5126-aa8d-2ac77a2ec4bb-attr-1-type" class="er entityLabel">String</text><rect height="23" width="45.14283752441406" y="22" x="78.37608337402344" class="er attributeBoxOdd"/><text style="dominant-baseline: middle; font-size: 10.2px;" transform="translate(83.37608337402344,33.5)" y="0" x="0" id="text-entity-documents-075aa3b2-4831-5126-aa8d-2ac77a2ec4bb-attr-1-name" class="er entityLabel">id</text><rect height="23" width="23" y="22" x="123.5189208984375" class="er attributeBoxOdd"/><text style="dominant-baseline: middle; font-size: 10.2px;" transform="translate(128.5189208984375,33.5)" y="0" x="0" id="text-entity-documents-075aa3b2-4831-5126-aa8d-2ac77a2ec4bb-attr-1-comment" class="er entityLabel">🗝️</text><rect height="21" width="78.37608337402344" y="45" x="0" class="er attributeBoxEven"/><text style="dominant-baseline: middle; font-size: 10.2px;" transform="translate(5,55.5)" y="0" x="0" id="text-entity-documents-075aa3b2-4831-5126-aa8d-2ac77a2ec4bb-attr-2-type" class="er entityLabel">BigInt</text><rect height="21" width="45.14283752441406" y="45" x="78.37608337402344" class="er attributeBoxEven"/><text style="dominant-baseline: middle; font-size: 10.2px;" transform="translate(83.37608337402344,55.5)" y="0" x="0" id="text-entity-documents-075aa3b2-4831-5126-aa8d-2ac77a2ec4bb-attr-2-name" class="er entityLabel">number</text><rect height="21" width="23" y="45" x="123.5189208984375" class="er attributeBoxEven"/><text style="dominant-baseline: middle; font-size: 10.2px;" transform="translate(128.5189208984375,55.5)" y="0" x="0" id="text-entity-documents-075aa3b2-4831-5126-aa8d-2ac77a2ec4bb-attr-2-comment" class="er entityLabel"/><rect height="21" width="78.37608337402344" y="66" x="0" class="er attributeBoxOdd"/><text style="dominant-baseline: middle; font-size: 10.2px;" transform="translate(5,76.5)" y="0" x="0" id="text-entity-documents-075aa3b2-4831-5126-aa8d-2ac77a2ec4bb-attr-3-type" class="er entityLabel">DocumentType</text><rect height="21" width="45.14283752441406" y="66" x="78.37608337402344" class="er attributeBoxOdd"/><text style="dominant-baseline: middle; font-size: 10.2px;" transform="translate(83.37608337402344,76.5)" y="0" x="0" id="text-entity-documents-075aa3b2-4831-5126-aa8d-2ac77a2ec4bb-attr-3-name" class="er entityLabel">type</text><rect height="21" width="23" y="66" x="123.5189208984375" class="er attributeBoxOdd"/><text style="dominant-baseline: middle; font-size: 10.2px;" transform="translate(128.5189208984375,76.5)" y="0" x="0" id="text-entity-documents-075aa3b2-4831-5126-aa8d-2ac77a2ec4bb-attr-3-comment" class="er entityLabel"/></g><g transform="translate(461.94542694091797,478 )" id="entity-transactions-a3d7e83a-4348-578f-b8ec-7c8b8dbef31a"><rect height="215" width="182.6062774658203" y="0" x="0" class="er entityBox"/><text style="dominant-baseline: middle; text-anchor: middle; font-size: 12px;" transform="translate(91.30313873291016,11)" y="0" x="0" id="text-entity-transactions-a3d7e83a-4348-578f-b8ec-7c8b8dbef31a" class="er entityLabel">transactions</text><rect height="23" width="90.9375" y="22" x="0" class="er attributeBoxOdd"/><text style="dominant-baseline: middle; font-size: 10.2px;" transform="translate(5,33.5)" y="0" x="0" id="text-entity-transactions-a3d7e83a-4348-578f-b8ec-7c8b8dbef31a-attr-1-type" class="er entityLabel">String</text><rect height="23" width="68.66877746582031" y="22" x="90.9375" class="er attributeBoxOdd"/><text style="dominant-baseline: middle; font-size: 10.2px;" transform="translate(95.9375,33.5)" y="0" x="0" id="text-entity-transactions-a3d7e83a-4348-578f-b8ec-7c8b8dbef31a-attr-1-name" class="er entityLabel">id</text><rect height="23" width="23" y="22" x="159.6062774658203" class="er attributeBoxOdd"/><text style="dominant-baseline: middle; font-size: 10.2px;" transform="translate(164.6062774658203,33.5)" y="0" x="0" id="text-entity-transactions-a3d7e83a-4348-578f-b8ec-7c8b8dbef31a-attr-1-comment" class="er entityLabel">🗝️</text><rect height="21" width="90.9375" y="45" x="0" class="er attributeBoxEven"/><text style="dominant-baseline: middle; font-size: 10.2px;" transform="translate(5,55.5)" y="0" x="0" id="text-entity-transactions-a3d7e83a-4348-578f-b8ec-7c8b8dbef31a-attr-2-type" class="er entityLabel">Float</text><rect height="21" width="68.66877746582031" y="45" x="90.9375" class="er attributeBoxEven"/><text style="dominant-baseline: middle; font-size: 10.2px;" transform="translate(95.9375,55.5)" y="0" x="0" id="text-entity-transactions-a3d7e83a-4348-578f-b8ec-7c8b8dbef31a-attr-2-name" class="er entityLabel">value</text><rect height="21" width="23" y="45" x="159.6062774658203" class="er attributeBoxEven"/><text style="dominant-baseline: middle; font-size: 10.2px;" transform="translate(164.6062774658203,55.5)" y="0" x="0" id="text-entity-transactions-a3d7e83a-4348-578f-b8ec-7c8b8dbef31a-attr-2-comment" class="er entityLabel"/><rect height="21" width="90.9375" y="66" x="0" class="er attributeBoxOdd"/><text style="dominant-baseline: middle; font-size: 10.2px;" transform="translate(5,76.5)" y="0" x="0" id="text-entity-transactions-a3d7e83a-4348-578f-b8ec-7c8b8dbef31a-attr-3-type" class="er entityLabel">String</text><rect height="21" width="68.66877746582031" y="66" x="90.9375" class="er attributeBoxOdd"/><text style="dominant-baseline: middle; font-size: 10.2px;" transform="translate(95.9375,76.5)" y="0" x="0" id="text-entity-transactions-a3d7e83a-4348-578f-b8ec-7c8b8dbef31a-attr-3-name" class="er entityLabel">document_id</text><rect height="21" width="23" y="66" x="159.6062774658203" class="er attributeBoxOdd"/><text style="dominant-baseline: middle; font-size: 10.2px;" transform="translate(164.6062774658203,76.5)" y="0" x="0" id="text-entity-transactions-a3d7e83a-4348-578f-b8ec-7c8b8dbef31a-attr-3-comment" class="er entityLabel"/><rect height="21" width="90.9375" y="87" x="0" class="er attributeBoxEven"/><text style="dominant-baseline: middle; font-size: 10.2px;" transform="translate(5,97.5)" y="0" x="0" id="text-entity-transactions-a3d7e83a-4348-578f-b8ec-7c8b8dbef31a-attr-4-type" class="er entityLabel">String</text><rect height="21" width="68.66877746582031" y="87" x="90.9375" class="er attributeBoxEven"/><text style="dominant-baseline: middle; font-size: 10.2px;" transform="translate(95.9375,97.5)" y="0" x="0" id="text-entity-transactions-a3d7e83a-4348-578f-b8ec-7c8b8dbef31a-attr-4-name" class="er entityLabel">payer_id</text><rect height="21" width="23" y="87" x="159.6062774658203" class="er attributeBoxEven"/><text style="dominant-baseline: middle; font-size: 10.2px;" transform="translate(164.6062774658203,97.5)" y="0" x="0" id="text-entity-transactions-a3d7e83a-4348-578f-b8ec-7c8b8dbef31a-attr-4-comment" class="er entityLabel"/><rect height="21" width="90.9375" y="108" x="0" class="er attributeBoxOdd"/><text style="dominant-baseline: middle; font-size: 10.2px;" transform="translate(5,118.5)" y="0" x="0" id="text-entity-transactions-a3d7e83a-4348-578f-b8ec-7c8b8dbef31a-attr-5-type" class="er entityLabel">String</text><rect height="21" width="68.66877746582031" y="108" x="90.9375" class="er attributeBoxOdd"/><text style="dominant-baseline: middle; font-size: 10.2px;" transform="translate(95.9375,118.5)" y="0" x="0" id="text-entity-transactions-a3d7e83a-4348-578f-b8ec-7c8b8dbef31a-attr-5-name" class="er entityLabel">payee_id</text><rect height="21" width="23" y="108" x="159.6062774658203" class="er attributeBoxOdd"/><text style="dominant-baseline: middle; font-size: 10.2px;" transform="translate(164.6062774658203,118.5)" y="0" x="0" id="text-entity-transactions-a3d7e83a-4348-578f-b8ec-7c8b8dbef31a-attr-5-comment" class="er entityLabel"/><rect height="21" width="90.9375" y="129" x="0" class="er attributeBoxEven"/><text style="dominant-baseline: middle; font-size: 10.2px;" transform="translate(5,139.5)" y="0" x="0" id="text-entity-transactions-a3d7e83a-4348-578f-b8ec-7c8b8dbef31a-attr-6-type" class="er entityLabel">TransactionStatus</text><rect height="21" width="68.66877746582031" y="129" x="90.9375" class="er attributeBoxEven"/><text style="dominant-baseline: middle; font-size: 10.2px;" transform="translate(95.9375,139.5)" y="0" x="0" id="text-entity-transactions-a3d7e83a-4348-578f-b8ec-7c8b8dbef31a-attr-6-name" class="er entityLabel">status</text><rect height="21" width="23" y="129" x="159.6062774658203" class="er attributeBoxEven"/><text style="dominant-baseline: middle; font-size: 10.2px;" transform="translate(164.6062774658203,139.5)" y="0" x="0" id="text-entity-transactions-a3d7e83a-4348-578f-b8ec-7c8b8dbef31a-attr-6-comment" class="er entityLabel"/><rect height="21" width="90.9375" y="150" x="0" class="er attributeBoxOdd"/><text style="dominant-baseline: middle; font-size: 10.2px;" transform="translate(5,160.5)" y="0" x="0" id="text-entity-transactions-a3d7e83a-4348-578f-b8ec-7c8b8dbef31a-attr-7-type" class="er entityLabel">DateTime</text><rect height="21" width="68.66877746582031" y="150" x="90.9375" class="er attributeBoxOdd"/><text style="dominant-baseline: middle; font-size: 10.2px;" transform="translate(95.9375,160.5)" y="0" x="0" id="text-entity-transactions-a3d7e83a-4348-578f-b8ec-7c8b8dbef31a-attr-7-name" class="er entityLabel">created_at</text><rect height="21" width="23" y="150" x="159.6062774658203" class="er attributeBoxOdd"/><text style="dominant-baseline: middle; font-size: 10.2px;" transform="translate(164.6062774658203,160.5)" y="0" x="0" id="text-entity-transactions-a3d7e83a-4348-578f-b8ec-7c8b8dbef31a-attr-7-comment" class="er entityLabel"/><rect height="21" width="90.9375" y="171" x="0" class="er attributeBoxEven"/><text style="dominant-baseline: middle; font-size: 10.2px;" transform="translate(5,181.5)" y="0" x="0" id="text-entity-transactions-a3d7e83a-4348-578f-b8ec-7c8b8dbef31a-attr-8-type" class="er entityLabel">DateTime</text><rect height="21" width="68.66877746582031" y="171" x="90.9375" class="er attributeBoxEven"/><text style="dominant-baseline: middle; font-size: 10.2px;" transform="translate(95.9375,181.5)" y="0" x="0" id="text-entity-transactions-a3d7e83a-4348-578f-b8ec-7c8b8dbef31a-attr-8-name" class="er entityLabel">updated_at</text><rect height="21" width="23" y="171" x="159.6062774658203" class="er attributeBoxEven"/><text style="dominant-baseline: middle; font-size: 10.2px;" transform="translate(164.6062774658203,181.5)" y="0" x="0" id="text-entity-transactions-a3d7e83a-4348-578f-b8ec-7c8b8dbef31a-attr-8-comment" class="er entityLabel"/><rect height="23" width="90.9375" y="192" x="0" class="er attributeBoxOdd"/><text style="dominant-baseline: middle; font-size: 10.2px;" transform="translate(5,203.5)" y="0" x="0" id="text-entity-transactions-a3d7e83a-4348-578f-b8ec-7c8b8dbef31a-attr-9-type" class="er entityLabel">DateTime</text><rect height="23" width="68.66877746582031" y="192" x="90.9375" class="er attributeBoxOdd"/><text style="dominant-baseline: middle; font-size: 10.2px;" transform="translate(95.9375,203.5)" y="0" x="0" id="text-entity-transactions-a3d7e83a-4348-578f-b8ec-7c8b8dbef31a-attr-9-name" class="er entityLabel">canceled_at</text><rect height="23" width="23" y="192" x="159.6062774658203" class="er attributeBoxOdd"/><text style="dominant-baseline: middle; font-size: 10.2px;" transform="translate(164.6062774658203,203.5)" y="0" x="0" id="text-entity-transactions-a3d7e83a-4348-578f-b8ec-7c8b8dbef31a-attr-9-comment" class="er entityLabel">❓</text></g><rect height="12" width="83.62051391601562" y="185.2998504638672" x="215.9469451904297" class="er relationshipLabelBox"/><text style="text-anchor: middle; dominant-baseline: middle; font-size: 12px;" y="191.2998504638672" x="257.7572021484375" id="rel1" class="er relationshipLabel">enum:user_role</text><rect height="12" width="55.348358154296875" y="203.833740234375" x="353.87779235839844" class="er relationshipLabelBox"/><text style="text-anchor: middle; dominant-baseline: middle; font-size: 12px;" y="209.833740234375" x="381.5519714355469" id="rel2" class="er relationshipLabel">Document</text><rect height="12" width="61.5625" y="328.6575622558594" x="501.165771484375" class="er relationshipLabelBox"/><text style="text-anchor: middle; dominant-baseline: middle; font-size: 12px;" y="334.6575622558594" x="531.947021484375" id="rel3" class="er relationshipLabel">Transaction</text><rect height="12" width="56.54833984375" y="446.62957763671875" x="175.04090881347656" class="er relationshipLabelBox"/><text style="text-anchor: middle; dominant-baseline: middle; font-size: 12px;" y="452.62957763671875" x="203.31507873535156" id="rel4" class="er relationshipLabel">enum:type</text><rect height="12" width="23.3441162109375" y="265.1234130859375" x="517.5469360351562" class="er relationshipLabelBox"/><text style="text-anchor: middle; dominant-baseline: middle; font-size: 12px;" y="271.1234130859375" x="529.218994140625" id="rel5" class="er relationshipLabel">user</text><rect height="12" width="61.5625" y="454.5696105957031" x="350.3595886230469" class="er relationshipLabelBox"/><text style="text-anchor: middle; dominant-baseline: middle; font-size: 12px;" y="460.5696105957031" x="381.1408386230469" id="rel6" class="er relationshipLabel">Transaction</text><rect height="12" width="65.125" y="737" x="520.6860961914062" class="er relationshipLabelBox"/><text style="text-anchor: middle; dominant-baseline: middle; font-size: 12px;" y="743" x="553.2485961914062" id="rel7" class="er relationshipLabel">enum:status</text><rect height="12" width="25.34375" y="309.72369384765625" x="719.0975341796875" class="er relationshipLabelBox"/><text style="text-anchor: middle; dominant-baseline: middle; font-size: 12px;" y="315.72369384765625" x="731.7694091796875" id="rel8" class="er relationshipLabel">User</text><rect height="12" width="55.348358154296875" y="419.52886962890625" x="399.4871063232422" class="er relationshipLabelBox"/><text style="text-anchor: middle; dominant-baseline: middle; font-size: 12px;" y="425.52886962890625" x="427.1612854003906" id="rel9" class="er relationshipLabel">Document</text></svg>